#N canvas 849 145 521 432 10;
#X obj 299 364 dac~;
#X obj 168 104 adc~;
#X obj 237 187 *~;
#X obj 244 133 osc~ 0.5;
#X obj 340 208 osc~ 0.5;
#X obj 263 272 *~;
#X text 43 306 param frequency slider 0.1 30 0.1 Hz;
#X text 38 329 param frequency2 slider 0.1 30 0.1 Hz;
#X obj 235 59 r \$0-frequency;
#X obj 311 77 r \$0-frequency2;
#X connect 1 0 2 0;
#X connect 1 1 2 0;
#X connect 2 0 0 1;
#X connect 2 0 5 0;
#X connect 3 0 2 1;
#X connect 4 0 5 1;
#X connect 5 0 0 0;
#X connect 8 0 3 0;
#X connect 9 0 4 0;
