#N canvas 531 133 714 379 10;
#X obj 58 153 rpole~;
#X obj 58 128 rzero_rev~;
#X obj 58 202 rpole~;
#X obj 58 177 rzero_rev~;
#X obj 58 250 rpole~;
#X obj 58 225 rzero_rev~;
#X obj 58 299 rpole~;
#X obj 58 274 rzero_rev~;
#X obj 214 174 phasor~ 1;
#X obj 206 106 f \$1;
#X obj 321 58 loadbang;
#X obj 435 115 f \$2;
#X obj 206 125 sel 0;
#X obj 185 146 f 0.3;
#X obj 435 136 sel 0;
#X obj 422 158 f 0.6;
#X obj 215 196 expr~ 0.97*(1 - $v2*($v1-0.5)*($v1-0.5));
#X text 128 331 Based on pure-data/doc/3.audio.examples/H15.phaser.pd.
;
#X obj 21 347 dac~;
#X obj 29 62 adc~;
#X floatatom 177 50 5 0 0 0 - - -;
#X obj 433 65 r sweep;
#X text 502 43 param range slider 0 1 0.5;
#X text 492 33 param sweep slider 0 10 0.5;
#X obj 358 141 r range;
#X connect 0 0 3 0;
#X connect 1 0 0 0;
#X connect 2 0 5 0;
#X connect 3 0 2 0;
#X connect 4 0 7 0;
#X connect 5 0 4 0;
#X connect 6 0 18 0;
#X connect 6 0 18 1;
#X connect 7 0 6 0;
#X connect 8 0 16 0;
#X connect 9 0 12 0;
#X connect 10 0 9 0;
#X connect 10 0 11 0;
#X connect 11 0 14 0;
#X connect 12 0 13 0;
#X connect 12 1 8 0;
#X connect 13 0 8 0;
#X connect 14 0 15 0;
#X connect 14 1 16 1;
#X connect 15 0 16 1;
#X connect 16 0 1 1;
#X connect 16 0 0 1;
#X connect 16 0 3 1;
#X connect 16 0 2 1;
#X connect 16 0 5 1;
#X connect 16 0 4 1;
#X connect 16 0 7 1;
#X connect 16 0 6 1;
#X connect 19 0 1 0;
#X connect 19 0 18 0;
#X connect 19 0 18 1;
#X connect 19 1 1 0;
#X connect 20 0 8 0;
#X connect 21 0 8 0;
#X connect 24 0 16 1;
