#N canvas 868 129 521 432 10;
#X obj 245 374 dac~;
#X obj 195 55 notein;
#X obj 177 87 mtof;
#X obj 254 331 *~ 0.2;
#X obj 154 205 phasor~ 440;
#X obj 167 280 *~;
#X obj 66 144 c_adsr 1 5 10 100 500;
#X connect 1 0 2 0;
#X connect 1 1 6 0;
#X connect 2 0 4 0;
#X connect 3 0 0 0;
#X connect 3 0 0 1;
#X connect 4 0 5 0;
#X connect 5 0 3 0;
#X connect 6 0 5 1;
