#N canvas 868 129 521 432 10;
#X obj 151 210 *~;
#X obj 193 210 line~;
#X obj 75 201 cos~;
#X obj 75 176 +~;
#X obj 193 187 pack 0 50;
#X floatatom 193 139 0 0 0 0 - - -;
#X obj 193 163 / 100;
#X obj 75 151 phasor~;
#X obj 74 275 hip~;
#X obj 150 139 osc~;
#X text 228 139 index (x100);
#X floatatom 75 80 3 0 15 0 - - -;
#X obj 75 127 *;
#X text 109 79 carrier harmonic #;
#X obj 153 385 dac~;
#X floatatom 320 105 5 0 0 0 - - -;
#X obj 321 78 mtof;
#X obj 328 47 notein;
#X obj 28 7 loadbang;
#X msg 28 37 0;
#X obj 253 254 c_adsr 1 5 10 100 500;
#X obj 384 168 / 127;
#X obj 72 227 *~ 0.1;
#X obj 227 304 *~;
#X text 176 14 param index slider 10 500 10;
#X obj 232 69 r index;
#X msg 138 63 10;
#X obj 98 19 r carrier;
#X text 186 24 param carrier slider 0 1000 0;
#X connect 0 0 3 1;
#X connect 1 0 0 1;
#X connect 2 0 22 0;
#X connect 3 0 2 0;
#X connect 4 0 1 0;
#X connect 5 0 6 0;
#X connect 6 0 4 0;
#X connect 7 0 3 0;
#X connect 8 0 14 0;
#X connect 8 0 14 1;
#X connect 9 0 0 0;
#X connect 11 0 12 0;
#X connect 12 0 7 0;
#X connect 15 0 9 0;
#X connect 15 0 12 1;
#X connect 16 0 15 0;
#X connect 17 0 16 0;
#X connect 17 1 21 0;
#X connect 18 0 19 0;
#X connect 18 0 26 0;
#X connect 19 0 11 0;
#X connect 20 0 23 1;
#X connect 21 0 20 0;
#X connect 22 0 23 0;
#X connect 23 0 8 0;
#X connect 25 0 5 0;
#X connect 26 0 5 0;
#X connect 27 0 11 0;
