#N canvas 240 236 572 577 10;
#X obj 279 497 dac~;
#X obj 195 55 notein;
#X obj 177 87 mtof;
#X obj 154 205 phasor~ 440;
#X obj 264 293 *~;
#X obj 263 198 / 128;
#X obj 370 205 ctlin 1;
#X floatatom 414 268 5 0 0 0 - - -;
#X obj 362 268 + 100;
#X obj 351 237 * 20;
#X obj 288 454 *~ 0.7;
#X obj 315 356 vcf~ 20;
#X obj 196 244 -~ 0.5;
#X obj 203 280 *~ 2;
#X obj 108 163 phasor~ 440;
#X obj 349 154 loadbang;
#X msg 349 184 64;
#X text 272 38 param detuneSpeed slider 0.1 30 0.1;
#X obj 99 6 r detuneSpeed;
#X obj 79 96 r detuneAmount;
#X obj 98 70 osc~;
#X obj 70 142 *~;
#X text 273 57 param detuneAmount slider 0.1 50 0.1;
#X obj 66 176 +~;
#X obj 136 115 /~ 2;
#X connect 1 0 2 0;
#X connect 1 1 5 0;
#X connect 2 0 3 0;
#X connect 2 0 24 0;
#X connect 3 0 12 0;
#X connect 4 0 11 0;
#X connect 5 0 4 1;
#X connect 6 0 7 0;
#X connect 6 0 9 0;
#X connect 8 0 11 1;
#X connect 9 0 8 0;
#X connect 10 0 0 0;
#X connect 10 0 0 1;
#X connect 11 0 10 0;
#X connect 12 0 13 0;
#X connect 13 0 4 0;
#X connect 14 0 12 0;
#X connect 15 0 16 0;
#X connect 16 0 9 0;
#X connect 18 0 20 0;
#X connect 19 0 21 1;
#X connect 20 0 21 0;
#X connect 21 0 23 1;
#X connect 23 0 14 0;
#X connect 24 0 23 0;
