#N canvas 41 124 1242 626 10;
#X obj 551 574 line~;
#X text 910 37 time = distance/rate;
#X obj 155 224 -;
#X floatatom 337 396 6 0 0;
#X text 357 415 time;
#X obj 276 470 pack 0 0;
#X obj 155 265 moses 0;
#X obj 155 287 * -1;
#X floatatom 198 305 4 0 0;
#X text 199 325 dist;
#X floatatom 165 98 4 0 0;
#X floatatom 231 99 4 0 0;
#X floatatom 462 111 4 0 0;
#X floatatom 528 112 4 0 0;
#X floatatom 821 109 4 0 0;
#X floatatom 889 110 4 0 0;
#X obj 344 343 t b f;
#X obj 617 595 snapshot~;
#X floatatom 617 618 0 0 0;
#X obj 684 616 metro 100;
#X msg 685 595 bang;
#X text 149 15 5-point envelope generator;
#X msg 71 372 bang;
#X obj 265 248 moses 0.001;
#X obj 26 137 inlet;
#X obj 26 181 sel 0;
#X obj 75 181 t b;
#X msg 26 234 stop;
#X obj 73 496 pack 0 0;
#X obj 523 632 outlet~;
#X obj 622 1 inlet;
#X text 168 117 level;
#X text 468 129 level;
#X text 828 126 level;
#X text 897 127 rate;
#X text 535 131 rate;
#X text 242 120 rate;
#X text 162 243 get abs value;
#X obj 277 440 f;
#X obj 331 442 f;
#X obj 111 421 f;
#X obj 173 401 del;
#X obj 279 390 * 0.01;
#X obj 103 243 * 0.01;
#X obj 478 232 -;
#X floatatom 660 404 6 0 0;
#X text 680 423 time;
#X obj 599 478 pack 0 0;
#X obj 478 273 moses 0;
#X obj 478 295 * -1;
#X floatatom 521 313 4 0 0;
#X text 522 333 dist;
#X obj 667 351 t b f;
#X obj 588 256 moses 0.001;
#X text 485 251 get abs value;
#X obj 600 448 f;
#X obj 654 450 f;
#X obj 434 429 f;
#X obj 489 426 del;
#X obj 602 398 * 0.01;
#X obj 426 251 * 0.01;
#X obj 803 231 -;
#X floatatom 985 403 6 0 0;
#X text 1005 422 time;
#X obj 924 477 pack 0 0;
#X obj 803 272 moses 0;
#X obj 803 294 * -1;
#X floatatom 846 312 4 0 0;
#X text 847 332 dist;
#X obj 992 350 t b f;
#X obj 913 255 moses 0.001;
#X text 810 250 get abs value;
#X obj 985 377 / 0.001;
#X obj 925 447 f;
#X obj 979 449 f;
#X obj 759 428 f;
#X obj 814 425 del;
#X obj 927 397 * 0.01;
#X obj 751 250 * 0.01;
#X floatatom 984 111 4 0 0;
#X floatatom 1052 112 4 0 0;
#X text 991 128 level;
#X text 1060 129 rate;
#X obj 1102 246 -;
#X floatatom 1284 418 6 0 0;
#X text 1304 437 time;
#X obj 1223 492 pack 0 0;
#X obj 1102 287 moses 0;
#X obj 1102 309 * -1;
#X floatatom 1145 327 4 0 0;
#X text 1146 347 dist;
#X obj 1291 365 t b f;
#X obj 1212 270 moses 0.001;
#X text 1109 265 get abs value;
#X obj 1284 392 / 0.001;
#X obj 1224 462 f;
#X obj 1278 464 f;
#X obj 1058 443 f;
#X obj 1113 440 del;
#X obj 1226 412 * 0.01;
#X obj 1050 265 * 0.01;
#X floatatom 1280 113 4 0 0;
#X floatatom 1348 114 4 0 0;
#X text 1287 130 level;
#X text 1356 131 rate;
#X obj 621 25 unpack 0 0 0 0 0 0 0 0 0 0 9;
#X floatatom 857 20 4 0 0;
#X obj 337 370 / 0.001;
#X obj 660 378 / 0.001;
#X obj 199 347 * 50;
#X obj 522 355 * 50;
#X obj 847 354 * 50;
#X obj 1146 369 * 50;
#X connect 0 0 17 0;
#X connect 0 0 29 0;
#X connect 2 0 6 0;
#X connect 3 0 39 1;
#X connect 3 0 41 1;
#X connect 5 0 0 0;
#X connect 6 0 7 0;
#X connect 6 1 8 0;
#X connect 7 0 8 0;
#X connect 8 0 109 0;
#X connect 10 0 2 0;
#X connect 10 0 43 0;
#X connect 11 0 23 0;
#X connect 12 0 2 1;
#X connect 12 0 42 0;
#X connect 12 0 44 0;
#X connect 12 0 60 0;
#X connect 13 0 53 0;
#X connect 14 0 44 1;
#X connect 14 0 59 0;
#X connect 14 0 78 0;
#X connect 14 0 61 0;
#X connect 15 0 70 0;
#X connect 16 0 107 0;
#X connect 16 1 107 1;
#X connect 17 0 18 0;
#X connect 19 0 17 0;
#X connect 20 0 19 0;
#X connect 22 0 40 0;
#X connect 23 1 16 0;
#X connect 24 0 25 0;
#X connect 25 0 27 0;
#X connect 25 0 28 0;
#X connect 25 1 26 0;
#X connect 26 0 22 0;
#X connect 27 0 0 0;
#X connect 28 0 0 0;
#X connect 30 0 105 0;
#X connect 38 0 5 0;
#X connect 39 0 5 1;
#X connect 40 0 0 0;
#X connect 40 0 41 0;
#X connect 41 0 39 0;
#X connect 41 0 38 0;
#X connect 41 0 57 0;
#X connect 42 0 38 1;
#X connect 43 0 40 1;
#X connect 44 0 48 0;
#X connect 45 0 56 1;
#X connect 45 0 58 1;
#X connect 47 0 0 0;
#X connect 48 0 49 0;
#X connect 48 1 50 0;
#X connect 49 0 50 0;
#X connect 50 0 110 0;
#X connect 52 0 108 0;
#X connect 52 1 108 1;
#X connect 53 1 52 0;
#X connect 55 0 47 0;
#X connect 56 0 47 1;
#X connect 57 0 58 0;
#X connect 58 0 56 0;
#X connect 58 0 55 0;
#X connect 58 0 75 0;
#X connect 59 0 55 1;
#X connect 60 0 57 1;
#X connect 61 0 65 0;
#X connect 62 0 74 1;
#X connect 62 0 76 1;
#X connect 64 0 0 0;
#X connect 65 0 66 0;
#X connect 65 1 67 0;
#X connect 66 0 67 0;
#X connect 67 0 111 0;
#X connect 69 0 72 0;
#X connect 69 1 72 1;
#X connect 70 1 69 0;
#X connect 72 0 62 0;
#X connect 73 0 64 0;
#X connect 74 0 64 1;
#X connect 75 0 76 0;
#X connect 76 0 74 0;
#X connect 76 0 73 0;
#X connect 76 0 97 0;
#X connect 77 0 73 1;
#X connect 78 0 75 1;
#X connect 79 0 61 1;
#X connect 79 0 77 0;
#X connect 79 0 100 0;
#X connect 79 0 83 0;
#X connect 80 0 92 0;
#X connect 83 0 87 0;
#X connect 84 0 96 1;
#X connect 84 0 98 1;
#X connect 86 0 0 0;
#X connect 87 0 88 0;
#X connect 87 1 89 0;
#X connect 88 0 89 0;
#X connect 89 0 112 0;
#X connect 91 0 94 0;
#X connect 91 1 94 1;
#X connect 92 1 91 0;
#X connect 94 0 84 0;
#X connect 95 0 86 0;
#X connect 96 0 86 1;
#X connect 97 0 98 0;
#X connect 98 0 96 0;
#X connect 98 0 95 0;
#X connect 99 0 95 1;
#X connect 100 0 97 1;
#X connect 101 0 83 1;
#X connect 101 0 99 0;
#X connect 105 0 10 0;
#X connect 105 1 11 0;
#X connect 105 2 12 0;
#X connect 105 3 13 0;
#X connect 105 4 14 0;
#X connect 105 5 15 0;
#X connect 105 6 79 0;
#X connect 105 7 80 0;
#X connect 105 8 101 0;
#X connect 105 9 102 0;
#X connect 105 10 106 0;
#X connect 106 0 28 1;
#X connect 107 0 3 0;
#X connect 108 0 45 0;
#X connect 109 0 107 0;
#X connect 110 0 108 0;
#X connect 111 0 72 0;
#X connect 112 0 94 0;
