#N canvas 390 318 736 465 10;
#X graph graph1 0 0 12 1 482 179 682 39;
#X array 1-func 12 float 1;
#A 0 0 0.25 0.35 0.43 0.52 0.59 0.7 0.77 0.84 0.92 1 1;
#X pop;
#X msg 67 73 \; array1 read egratearray.txt \;;
#X floatatom 127 255 5 0 0;
#X floatatom 127 167 4 0 12;
#X obj 126 196 - 1;
#X graph graph1 0 0 12 1 481 342 681 202;
#X array 2-func 12 float 1;
#A 0 0.807143 0.557143 0.557143 0.557143 0.557143 0.557143 0.55 0.55
0.55 0.557143 0.557143 0.564286;
#X pop;
#X obj 217 343 s \$0-func;
#X obj 225 161 r \$0-func;
#X msg 215 262 1;
#X msg 254 261 2;
#X obj 230 204 print func;
#X obj 127 222 tabread4 func;
#X msg 216 299 set \$1-func;
#X connect 3 0 4 0;
#X connect 4 0 11 0;
#X connect 7 0 10 0;
#X connect 7 0 11 0;
#X connect 8 0 12 0;
#X connect 9 0 12 0;
#X connect 11 0 2 0;
#X connect 12 0 6 0;
