#N canvas 59 25 1176 809 10;
#X obj 57 343 inlet;
#X obj 57 422 sel 0;
#X obj 118 464 t b;
#X msg 58 496 stop;
#X obj 288 626 pack 0 0;
#X text 71 41 time = distance/rate;
#X floatatom 337 325 4 0 0;
#X text 343 306 distance;
#X obj 350 259 moses 0.001;
#X obj 378 343 / 0.001;
#X obj 422 291 t b f;
#X floatatom 378 422 8 0 0;
#X text 385 405 dur;
#X obj 263 482 f;
#X obj 472 626 pack 0 0;
#X obj 477 259 -;
#X obj 477 281 moses 0;
#X obj 477 303 * -1;
#X floatatom 521 325 4 0 0;
#X text 527 306 distance;
#X obj 534 259 moses 0.001;
#X obj 562 343 / 0.001;
#X obj 606 291 t b f;
#X floatatom 562 422 4 0 0;
#X text 569 405 dur;
#X obj 448 482 f;
#X obj 670 622 pack 0 0;
#X obj 675 255 -;
#X obj 675 277 moses 0;
#X obj 675 299 * -1;
#X floatatom 719 321 4 0 0;
#X text 725 299 distance;
#X obj 732 256 moses 0.001;
#X obj 760 339 / 0.001;
#X obj 804 287 t b f;
#X floatatom 760 418 4 0 0;
#X text 767 403 dur;
#X obj 646 482 f;
#X obj 866 626 pack 0 0;
#X obj 846 479 f;
#X obj 296 524 del;
#X text 148 463 bang on attack;
#X obj 483 524 del;
#X text 1 299 On "0": Stop all del's;
#X obj 677 520 del;
#X text 858 148 eglevel4 should be 0;
#X obj 846 457 spigot;
#X text 190 217 start at 0;
#X obj 879 259 -;
#X obj 879 281 moses 0;
#X obj 879 303 * -1;
#X floatatom 923 325 4 0 0;
#X text 929 306 distance;
#X obj 936 259 moses 0.001;
#X obj 964 343 / 0.001;
#X obj 1008 291 t b f;
#X floatatom 963 423 4 0 0;
#X text 970 407 dur;
#X obj 378 380 * 100;
#X obj 562 381 * 100;
#X obj 760 378 * 100;
#X obj 963 380 * 100;
#X floatatom 205 342 4 0 0;
#X msg 176 342 100;
#X obj 605 739 line~;
#X obj 605 786 outlet~;
#X floatatom 464 418 4 0 0;
#X floatatom 279 412 4 0 0;
#X floatatom 662 414 4 0 0;
#X floatatom 861 412 4 0 0;
#X obj 893 457 r \$0-autorelease?;
#X obj 806 80 s \$0-eglevel4;
#X obj 908 80 s \$0-egrate4;
#X obj 711 85 s \$0-egrate3;
#X obj 608 82 s \$0-eglevel3;
#X obj 503 83 s \$0-egrate2;
#X obj 401 81 s \$0-eglevel2;
#X obj 291 81 s \$0-egrate1;
#X obj 188 81 s \$0-eglevel1;
#X obj 999 60 s \$0-autorelease?;
#X obj 422 4 inlet;
#X obj 512 23 unpack 0 0 0 0 0 0 0 0 0;
#X obj 279 203 t f b;
#X obj 353 202 r \$0-egrate1;
#X obj 353 223 t f b;
#X obj 279 180 r \$0-eglevel1;
#X obj 464 181 r \$0-eglevel2;
#X obj 463 204 t f b;
#X obj 539 202 r \$0-egrate2;
#X obj 538 223 t f b;
#X obj 662 184 r \$0-eglevel3;
#X obj 662 204 t f b;
#X obj 736 203 r \$0-egrate3;
#X obj 736 223 t f b;
#X obj 861 180 r \$0-eglevel4;
#X obj 860 202 t f b;
#X obj 935 203 r \$0-egrate4;
#X obj 936 230 t f b;
#X floatatom 430 320 4 0 0;
#X floatatom 288 600 4 0 0;
#X floatatom 473 600 4 0 0;
#X floatatom 671 596 4 0 0;
#X floatatom 865 600 4 0 0;
#X text 147 323 time stretch factor;
#X text 57 311 & bang release;
#X obj 291 482 t b;
#X obj 476 482 t b;
#X obj 673 482 t b;
#X obj 605 763 *~ 0.01;
#X msg 196 605 0;
#X text 101 613 start at 0;
#X connect 0 0 1 0;
#X connect 1 0 3 0;
#X connect 1 0 39 0;
#X connect 1 1 2 0;
#X connect 2 0 13 0;
#X connect 2 0 109 0;
#X connect 3 0 40 0;
#X connect 3 0 42 0;
#X connect 3 0 44 0;
#X connect 4 0 64 0;
#X connect 6 0 9 0;
#X connect 8 1 10 0;
#X connect 9 0 58 0;
#X connect 10 0 9 0;
#X connect 10 1 98 0;
#X connect 11 0 4 1;
#X connect 11 0 40 1;
#X connect 13 0 99 0;
#X connect 13 0 105 0;
#X connect 14 0 64 0;
#X connect 15 0 16 0;
#X connect 16 0 17 0;
#X connect 16 1 18 0;
#X connect 17 0 18 0;
#X connect 18 0 21 0;
#X connect 20 1 22 0;
#X connect 21 0 59 0;
#X connect 22 0 21 0;
#X connect 22 1 21 1;
#X connect 23 0 14 1;
#X connect 23 0 42 1;
#X connect 25 0 100 0;
#X connect 25 0 106 0;
#X connect 26 0 64 0;
#X connect 27 0 28 0;
#X connect 28 0 29 0;
#X connect 28 1 30 0;
#X connect 29 0 30 0;
#X connect 30 0 33 0;
#X connect 32 1 34 0;
#X connect 33 0 60 0;
#X connect 34 0 33 0;
#X connect 34 1 33 1;
#X connect 35 0 26 1;
#X connect 35 0 44 1;
#X connect 37 0 101 0;
#X connect 37 0 107 0;
#X connect 38 0 64 0;
#X connect 39 0 102 0;
#X connect 40 0 25 0;
#X connect 42 0 37 0;
#X connect 44 0 46 0;
#X connect 46 0 39 0;
#X connect 48 0 49 0;
#X connect 49 0 50 0;
#X connect 49 1 51 0;
#X connect 50 0 51 0;
#X connect 51 0 54 0;
#X connect 53 1 55 0;
#X connect 54 0 61 0;
#X connect 55 0 54 0;
#X connect 55 1 54 1;
#X connect 56 0 38 1;
#X connect 58 0 11 0;
#X connect 59 0 23 0;
#X connect 60 0 35 0;
#X connect 61 0 56 0;
#X connect 62 0 58 1;
#X connect 62 0 59 1;
#X connect 62 0 60 1;
#X connect 62 0 61 1;
#X connect 63 0 62 0;
#X connect 64 0 108 0;
#X connect 66 0 25 1;
#X connect 67 0 13 1;
#X connect 68 0 37 1;
#X connect 69 0 39 1;
#X connect 70 0 46 1;
#X connect 80 0 81 0;
#X connect 81 0 78 0;
#X connect 81 1 77 0;
#X connect 81 2 76 0;
#X connect 81 3 75 0;
#X connect 81 4 74 0;
#X connect 81 5 73 0;
#X connect 81 6 71 0;
#X connect 81 7 72 0;
#X connect 81 8 79 0;
#X connect 82 0 15 0;
#X connect 82 0 67 0;
#X connect 82 0 6 0;
#X connect 83 0 84 0;
#X connect 84 0 8 0;
#X connect 85 0 82 0;
#X connect 86 0 87 0;
#X connect 87 0 15 1;
#X connect 87 0 27 0;
#X connect 87 0 66 0;
#X connect 87 1 15 0;
#X connect 88 0 89 0;
#X connect 89 0 20 0;
#X connect 90 0 91 0;
#X connect 91 0 27 1;
#X connect 91 0 48 0;
#X connect 91 0 68 0;
#X connect 91 1 27 0;
#X connect 92 0 93 0;
#X connect 93 0 32 0;
#X connect 94 0 95 0;
#X connect 95 0 48 1;
#X connect 95 0 69 0;
#X connect 95 1 48 0;
#X connect 96 0 97 0;
#X connect 97 0 53 0;
#X connect 98 0 9 1;
#X connect 99 0 4 0;
#X connect 100 0 14 0;
#X connect 101 0 26 0;
#X connect 102 0 38 0;
#X connect 105 0 40 0;
#X connect 106 0 42 0;
#X connect 107 0 44 0;
#X connect 108 0 65 0;
#X connect 109 0 64 0;
