#N canvas 190 22 1167 768 10;
#X text 46 387 Base Frequency;
#X text 46 409 Main Amp;
#X floatatom 214 616 4 0 0 0 - - -;
#X obj 214 641 * 0.01;
#X text 220 687 Amp;
#N canvas 73 56 1003 738 presets 0;
#X obj 349 204 unpack 0 0 0 0 0 0 0 0 0 0 0;
#X floatatom 232 322 4 0 0 0 - - -;
#X floatatom 291 321 4 0 0 0 - - -;
#X floatatom 343 324 4 0 0 0 - - -;
#X floatatom 399 325 4 0 0 0 - - -;
#X floatatom 529 332 4 0 0 0 - - -;
#X floatatom 597 333 4 0 0 0 - - -;
#X floatatom 662 333 4 0 0 0 - - -;
#X floatatom 794 334 4 0 0 0 - - -;
#X floatatom 728 332 4 0 0 0 - - -;
#X floatatom 444 325 4 0 0 0 - - -;
#X floatatom 85 327 4 0 0 0 - - -;
#X msg 21 80 1 3 2 3 2 4 0.3 0.5 0.7 0.5 0.1;
#X obj 25 53 r startall;
#X obj 172 671 s mod2;
#X obj 269 674 s mod3;
#X obj 358 674 s mod4;
#X obj 446 675 s mod5;
#X obj 596 361 s index3;
#X obj 349 178 r preset;
#X obj 29 271 s preset;
#X msg 37 130 1 3 2 3 2 4 1 1 1 1 1;
#X msg 28 105 1 2 1 3 2 2 1 0.1 1 0.5 0.5;
#X obj 735 202 s osc5fixed;
#X obj 733 169 s osc4fixed;
#X obj 733 136 s osc3fixed;
#X obj 730 101 s osc2fixed;
#X floatatom 664 218 4 0 0 0 - - -;
#X floatatom 660 83 4 0 0 0 - - -;
#X floatatom 664 117 4 0 0 0 - - -;
#X floatatom 663 150 4 0 0 0 - - -;
#X floatatom 663 184 4 0 0 0 - - -;
#X msg 480 30 0 0 0 0 0;
#X obj 480 54 unpack 0 0 0 0 0;
#X obj 478 4 loadbang;
#X floatatom 279 541 4 0 0 0 - - -;
#X obj 279 521 > 0;
#X obj 279 562 <= 0;
#X floatatom 279 583 4 0 0 0 - - -;
#X obj 279 500 r osc3fixed;
#X obj 272 610 spigot;
#X floatatom 272 638 4 0 0 0 - - -;
#X obj 231 563 spigot;
#X obj 242 610 t b;
#X floatatom 366 541 4 0 0 0 - - -;
#X obj 366 521 > 0;
#X obj 366 562 <= 0;
#X floatatom 366 583 4 0 0 0 - - -;
#X obj 359 610 spigot;
#X floatatom 359 638 4 0 0 0 - - -;
#X obj 318 563 spigot;
#X obj 332 610 t b;
#X obj 366 496 r osc4fixed;
#X obj 663 362 s index4;
#X floatatom 451 544 4 0 0 0 - - -;
#X obj 451 524 > 0;
#X obj 451 565 <= 0;
#X floatatom 451 586 4 0 0 0 - - -;
#X obj 444 613 spigot;
#X floatatom 444 641 4 0 0 0 - - -;
#X obj 403 566 spigot;
#X obj 417 613 t b;
#X floatatom 179 538 4 0 0 0 - - -;
#X obj 179 518 > 0;
#X obj 179 559 <= 0;
#X floatatom 179 580 4 0 0 0 - - -;
#X obj 172 607 spigot;
#X floatatom 172 635 4 0 0 0 - - -;
#X obj 131 560 spigot;
#X obj 145 607 t b;
#X obj 449 495 r osc5fixed;
#X obj 730 363 s index5;
#X obj 179 497 r osc2fixed;
#X obj 526 361 s index2;
#X floatatom 547 539 4 0 0 0 - - -;
#X obj 547 519 > 0;
#X obj 547 560 <= 0;
#X floatatom 547 581 4 0 0 0 - - -;
#X obj 540 608 spigot;
#X floatatom 540 636 4 0 0 0 - - -;
#X obj 499 561 spigot;
#X obj 513 608 t b;
#X text 723 25 Fixed frequency operators:;
#X text 742 43 value <= 0: ratio;
#X text 743 60 value > 0: fixed freq.;
#X obj 348 32 r osfixedpreset;
#X obj 733 236 s osc6fixed;
#X obj 547 496 r osc6fixed;
#X obj 541 673 s mod6;
#X obj 85 357 s mod1;
#X text 18 379 mod1: always carrier;
#X obj 799 363 s index6;
#X connect 0 0 11 0;
#X connect 0 1 1 0;
#X connect 0 2 2 0;
#X connect 0 3 3 0;
#X connect 0 4 4 0;
#X connect 0 5 10 0;
#X connect 0 6 5 0;
#X connect 0 7 6 0;
#X connect 0 8 7 0;
#X connect 0 9 9 0;
#X connect 0 10 8 0;
#X connect 1 0 66 0;
#X connect 2 0 40 0;
#X connect 3 0 48 0;
#X connect 4 0 58 0;
#X connect 5 0 73 0;
#X connect 6 0 18 0;
#X connect 7 0 53 0;
#X connect 8 0 91 0;
#X connect 9 0 71 0;
#X connect 10 0 78 0;
#X connect 11 0 89 0;
#X connect 12 0 20 0;
#X connect 13 0 12 0;
#X connect 19 0 0 0;
#X connect 21 0 20 0;
#X connect 22 0 20 0;
#X connect 27 0 86 0;
#X connect 28 0 26 0;
#X connect 29 0 25 0;
#X connect 30 0 24 0;
#X connect 31 0 23 0;
#X connect 32 0 33 0;
#X connect 33 0 27 0;
#X connect 33 1 31 0;
#X connect 33 2 30 0;
#X connect 33 3 29 0;
#X connect 33 4 28 0;
#X connect 34 0 32 0;
#X connect 35 0 37 0;
#X connect 35 0 42 1;
#X connect 35 0 42 0;
#X connect 36 0 35 0;
#X connect 37 0 38 0;
#X connect 38 0 40 1;
#X connect 38 0 43 0;
#X connect 39 0 36 0;
#X connect 40 0 41 0;
#X connect 41 0 15 0;
#X connect 42 0 41 0;
#X connect 43 0 2 0;
#X connect 44 0 46 0;
#X connect 44 0 50 1;
#X connect 44 0 50 0;
#X connect 45 0 44 0;
#X connect 46 0 47 0;
#X connect 47 0 48 1;
#X connect 47 0 51 0;
#X connect 48 0 49 0;
#X connect 49 0 16 0;
#X connect 50 0 49 0;
#X connect 51 0 3 0;
#X connect 52 0 45 0;
#X connect 54 0 56 0;
#X connect 54 0 60 1;
#X connect 54 0 60 0;
#X connect 55 0 54 0;
#X connect 56 0 57 0;
#X connect 57 0 58 1;
#X connect 57 0 61 0;
#X connect 58 0 59 0;
#X connect 59 0 17 0;
#X connect 60 0 59 0;
#X connect 61 0 4 0;
#X connect 62 0 64 0;
#X connect 62 0 68 1;
#X connect 62 0 68 0;
#X connect 63 0 62 0;
#X connect 64 0 65 0;
#X connect 65 0 66 1;
#X connect 65 0 69 0;
#X connect 66 0 67 0;
#X connect 67 0 14 0;
#X connect 68 0 67 0;
#X connect 69 0 1 0;
#X connect 70 0 55 0;
#X connect 72 0 63 0;
#X connect 74 0 76 0;
#X connect 74 0 80 1;
#X connect 74 0 80 0;
#X connect 75 0 74 0;
#X connect 76 0 77 0;
#X connect 77 0 78 1;
#X connect 77 0 81 0;
#X connect 78 0 79 0;
#X connect 79 0 88 0;
#X connect 80 0 79 0;
#X connect 81 0 10 0;
#X connect 85 0 33 0;
#X connect 87 0 75 0;
#X restore 771 40 pd presets;
#X floatatom 633 676 0 0 100 0 - - -;
#N canvas 159 26 495 270 output 0;
#X obj 338 160 t b;
#X obj 338 110 f;
#X obj 338 60 inlet;
#X text 344 29 mute;
#X obj 338 185 f;
#X msg 425 178 0;
#X msg 338 85 bang;
#X obj 338 135 moses 1;
#X obj 425 153 t b f;
#X obj 397 117 moses 1;
#X obj 83 148 dbtorms;
#X obj 397 92 r master-lvl;
#X obj 83 42 r master-lvl;
#X obj 338 210 s master-lvl;
#X obj 22 182 inlet~;
#X obj 199 41 inlet;
#X text 199 18 level;
#X obj 199 100 s master-lvl;
#X msg 96 65 set \$1;
#X obj 96 89 outlet;
#X msg 214 64 \; pd dsp 1;
#X obj 83 194 line~;
#X obj 22 212 *~;
#X obj 22 241 dac~;
#X obj 83 171 pack 0 50;
#X text 20 159 audio;
#X text 93 110 show level;
#X connect 0 0 4 0;
#X connect 1 0 7 0;
#X connect 2 0 6 0;
#X connect 4 0 13 0;
#X connect 5 0 13 0;
#X connect 6 0 1 0;
#X connect 7 0 0 0;
#X connect 7 1 8 0;
#X connect 8 0 5 0;
#X connect 9 1 4 1;
#X connect 10 0 24 0;
#X connect 11 0 1 1;
#X connect 11 0 9 0;
#X connect 12 0 10 0;
#X connect 12 0 18 0;
#X connect 14 0 22 0;
#X connect 15 0 17 0;
#X connect 15 0 20 0;
#X connect 18 0 19 0;
#X connect 21 0 22 1;
#X connect 22 0 23 0;
#X connect 22 0 23 1;
#X connect 24 0 21 0;
#X restore 488 697 pd output;
#X msg 665 675 MUTE;
#X text 720 674 <-- output amplitude;
#X msg 633 651 80;
#X obj 675 633 r startall;
#X obj 531 53 midikeyboard;
#X obj 214 666 s amp;
#X obj 498 80 makenote 5 500;
#X msg 214 591 100;
#X obj 50 569 r startall;
#X text 45 4 Start here;
#X obj 50 644 s duration;
#X obj 635 66 r duration;
#X floatatom 50 619 8 0 0 0 - - -;
#X text 50 668 Note Duration;
#X obj 196 389 pdx7channel;
#X obj 304 389 pdx7channel;
#X obj 414 389 pdx7channel;
#X obj 521 140 poly 8;
#X obj 525 173 pack 0 0 0;
#X obj 502 212 route 1 2 3 4 5 6 7 8;
#X obj 526 389 pdx7channel;
#X obj 645 389 pdx7channel;
#X obj 755 389 pdx7channel;
#X obj 867 389 pdx7channel;
#X obj 977 389 pdx7channel;
#X text 994 16 Edit algorithms;
#X text 46 365 pdx7channel args:;
#N canvas 0 22 1162 872 osc-matrix 0;
#X obj 44 768 * 0.01;
#X floatatom 44 741 4 0 100 0 - - -;
#X obj 140 768 * 0.01;
#X floatatom 140 741 4 0 100 0 - - -;
#X obj 228 767 * 0.01;
#X floatatom 228 740 4 0 100 0 - - -;
#X obj 320 768 * 0.01;
#X floatatom 320 741 4 0 100 0 - - -;
#X obj 402 768 * 0.01;
#X floatatom 402 741 4 0 100 0 - - -;
#X obj 488 767 * 0.01;
#X floatatom 488 740 4 0 100 0 - - -;
#X obj 573 768 * 0.01;
#X floatatom 573 741 4 0 100 0 - - -;
#X obj 246 707 unpack 0 0 0 0 0 0 0;
#X obj 59 149 * 0.01;
#X floatatom 59 122 4 0 100 0 - - -;
#X obj 155 149 * 0.01;
#X floatatom 155 122 4 0 100 0 - - -;
#X obj 243 148 * 0.01;
#X floatatom 243 121 4 0 100 0 - - -;
#X obj 335 149 * 0.01;
#X floatatom 335 122 4 0 100 0 - - -;
#X obj 417 149 * 0.01;
#X floatatom 417 122 4 0 100 0 - - -;
#X obj 503 148 * 0.01;
#X floatatom 503 121 4 0 100 0 - - -;
#X obj 588 149 * 0.01;
#X floatatom 588 122 4 0 100 0 - - -;
#X obj 261 92 unpack 0 0 0 0 0 0 0;
#X text 677 136 Routing for oscillator 2;
#X obj 59 179 s osc2-1;
#X obj 155 178 s osc2-2;
#X obj 244 179 s osc2-3;
#X obj 334 181 s osc2-4;
#X obj 418 181 s osc2-5;
#X obj 502 180 s osc2-6;
#X obj 589 180 s osc2out;
#X obj 50 300 * 0.01;
#X floatatom 50 273 4 0 100 0 - - -;
#X obj 146 300 * 0.01;
#X floatatom 146 273 4 0 100 0 - - -;
#X obj 234 299 * 0.01;
#X floatatom 234 272 4 0 100 0 - - -;
#X obj 326 300 * 0.01;
#X floatatom 326 273 4 0 100 0 - - -;
#X obj 408 300 * 0.01;
#X floatatom 408 273 4 0 100 0 - - -;
#X obj 494 299 * 0.01;
#X floatatom 494 272 4 0 100 0 - - -;
#X obj 579 300 * 0.01;
#X floatatom 579 273 4 0 100 0 - - -;
#X obj 247 242 unpack 0 0 0 0 0 0 0;
#X text 684 283 Routing for oscillator 3;
#X obj 50 330 s osc3-1;
#X obj 146 329 s osc3-2;
#X obj 235 330 s osc3-3;
#X obj 325 332 s osc3-4;
#X obj 409 332 s osc3-5;
#X obj 493 331 s osc3-6;
#X obj 580 331 s osc3out;
#X obj 45 451 * 0.01;
#X floatatom 45 424 4 0 100 0 - - -;
#X obj 141 451 * 0.01;
#X floatatom 141 424 4 0 100 0 - - -;
#X obj 229 450 * 0.01;
#X floatatom 229 423 4 0 100 0 - - -;
#X obj 321 451 * 0.01;
#X floatatom 321 424 4 0 100 0 - - -;
#X obj 403 451 * 0.01;
#X floatatom 403 424 4 0 100 0 - - -;
#X obj 489 450 * 0.01;
#X floatatom 489 423 4 0 100 0 - - -;
#X obj 574 451 * 0.01;
#X floatatom 574 424 4 0 100 0 - - -;
#X obj 240 392 unpack 0 0 0 0 0 0 0;
#X text 693 428 Routing for oscillator 4;
#X obj 45 481 s osc4-1;
#X obj 141 480 s osc4-2;
#X obj 230 481 s osc4-3;
#X obj 320 483 s osc4-4;
#X obj 404 483 s osc4-5;
#X obj 488 482 s osc4-6;
#X obj 575 482 s osc4out;
#X obj 55 617 * 0.01;
#X floatatom 55 590 4 0 100 0 - - -;
#X obj 151 617 * 0.01;
#X floatatom 151 590 4 0 100 0 - - -;
#X obj 239 616 * 0.01;
#X floatatom 239 589 4 0 100 0 - - -;
#X obj 331 617 * 0.01;
#X floatatom 331 590 4 0 100 0 - - -;
#X obj 413 617 * 0.01;
#X floatatom 413 590 4 0 100 0 - - -;
#X obj 499 616 * 0.01;
#X floatatom 499 589 4 0 100 0 - - -;
#X obj 584 617 * 0.01;
#X floatatom 584 590 4 0 100 0 - - -;
#X obj 249 557 unpack 0 0 0 0 0 0 0;
#X text 691 609 Routing for oscillator 5;
#X obj 55 648 s osc5-1;
#X obj 151 646 s osc5-2;
#X obj 240 647 s osc5-3;
#X obj 330 649 s osc5-4;
#X obj 414 649 s osc5-5;
#X obj 498 648 s osc5-6;
#X obj 585 648 s osc5out;
#X obj 973 185 * 0.01;
#X floatatom 973 163 4 0 100 0 - - -;
#X text 176 -8 HELP;
#X text 4 7 This window is used to control \, how each operator modulates
the others or itself. Set percentage values in the number boxes.;
#X text 919 64 [always carrier \, feedback only];
#X text 485 822 feedback;
#X text 155 198 feedback;
#X text 234 348 feedback;
#X text 321 505 feedback;
#X text 415 670 feedback;
#X obj 261 68 r algo-op2;
#X obj 247 219 r algo-op3;
#X obj 240 370 r algo-op4;
#X obj 249 534 r algo-op5;
#X obj 973 119 unpack 0 0;
#X obj 1038 185 * 0.01;
#X floatatom 1038 163 4 0 100 0 - - -;
#X text 671 745 Routing for oscillator 6;
#X obj 246 687 r algo-op6;
#X obj 44 798 s osc6-1;
#X obj 139 797 s osc6-2;
#X obj 229 798 s osc6-3;
#X obj 319 800 s osc6-4;
#X obj 403 800 s osc6-5;
#X obj 487 799 s osc6-6;
#X obj 574 799 s osc6out;
#X obj 973 90 r algo-op1;
#X obj 972 209 s osc1-1;
#X obj 1037 209 s osc1out;
#X text 938 49 Routing for oscillator 1;
#X connect 0 0 126 0;
#X connect 1 0 0 0;
#X connect 2 0 127 0;
#X connect 3 0 2 0;
#X connect 4 0 128 0;
#X connect 5 0 4 0;
#X connect 6 0 129 0;
#X connect 7 0 6 0;
#X connect 8 0 130 0;
#X connect 9 0 8 0;
#X connect 10 0 131 0;
#X connect 11 0 10 0;
#X connect 12 0 132 0;
#X connect 13 0 12 0;
#X connect 14 0 1 0;
#X connect 14 1 3 0;
#X connect 14 2 5 0;
#X connect 14 3 7 0;
#X connect 14 4 9 0;
#X connect 14 5 11 0;
#X connect 14 6 13 0;
#X connect 15 0 31 0;
#X connect 16 0 15 0;
#X connect 17 0 32 0;
#X connect 18 0 17 0;
#X connect 19 0 33 0;
#X connect 20 0 19 0;
#X connect 21 0 34 0;
#X connect 22 0 21 0;
#X connect 23 0 35 0;
#X connect 24 0 23 0;
#X connect 25 0 36 0;
#X connect 26 0 25 0;
#X connect 27 0 37 0;
#X connect 28 0 27 0;
#X connect 29 0 16 0;
#X connect 29 1 18 0;
#X connect 29 2 20 0;
#X connect 29 3 22 0;
#X connect 29 4 24 0;
#X connect 29 5 26 0;
#X connect 29 6 28 0;
#X connect 38 0 54 0;
#X connect 39 0 38 0;
#X connect 40 0 55 0;
#X connect 41 0 40 0;
#X connect 42 0 56 0;
#X connect 43 0 42 0;
#X connect 44 0 57 0;
#X connect 45 0 44 0;
#X connect 46 0 58 0;
#X connect 47 0 46 0;
#X connect 48 0 59 0;
#X connect 49 0 48 0;
#X connect 50 0 60 0;
#X connect 51 0 50 0;
#X connect 52 0 39 0;
#X connect 52 1 41 0;
#X connect 52 2 43 0;
#X connect 52 3 45 0;
#X connect 52 4 47 0;
#X connect 52 5 49 0;
#X connect 52 6 51 0;
#X connect 61 0 77 0;
#X connect 62 0 61 0;
#X connect 63 0 78 0;
#X connect 64 0 63 0;
#X connect 65 0 79 0;
#X connect 66 0 65 0;
#X connect 67 0 80 0;
#X connect 68 0 67 0;
#X connect 69 0 81 0;
#X connect 70 0 69 0;
#X connect 71 0 82 0;
#X connect 72 0 71 0;
#X connect 73 0 83 0;
#X connect 74 0 73 0;
#X connect 75 0 62 0;
#X connect 75 1 64 0;
#X connect 75 2 66 0;
#X connect 75 3 68 0;
#X connect 75 4 70 0;
#X connect 75 5 72 0;
#X connect 75 6 74 0;
#X connect 84 0 100 0;
#X connect 85 0 84 0;
#X connect 86 0 101 0;
#X connect 87 0 86 0;
#X connect 88 0 102 0;
#X connect 89 0 88 0;
#X connect 90 0 103 0;
#X connect 91 0 90 0;
#X connect 92 0 104 0;
#X connect 93 0 92 0;
#X connect 94 0 105 0;
#X connect 95 0 94 0;
#X connect 96 0 106 0;
#X connect 97 0 96 0;
#X connect 98 0 85 0;
#X connect 98 1 87 0;
#X connect 98 2 89 0;
#X connect 98 3 91 0;
#X connect 98 4 93 0;
#X connect 98 5 95 0;
#X connect 98 6 97 0;
#X connect 107 0 134 0;
#X connect 108 0 107 0;
#X connect 117 0 29 0;
#X connect 118 0 52 0;
#X connect 119 0 75 0;
#X connect 120 0 98 0;
#X connect 121 0 108 0;
#X connect 121 1 123 0;
#X connect 122 0 135 0;
#X connect 123 0 122 0;
#X connect 125 0 14 0;
#X connect 133 0 121 0;
#X restore 1001 38 pd osc-matrix;
#X msg 531 28 1;
#X msg 567 28 0;
#X text 531 5 on;
#X text 567 5 off;
#X text 24 90 PDX7;
#X text 40 106 [ written by Frank Barknecht \, 2001 (;
#X text 23 126 is a realisation of 6-Operator FM synthesis modelled
loosly after the famous Yamaha DX7. It is *not* a DX7 emulation \,
just an exploration of FM synthesis in PD.;
#X text 767 16 Edit operator mod/index;
#X text 612 172 Need more voices? Change [poly x] and [route 1...x]
and add x [pdx7channel]s;
#N canvas 111 112 982 718 algorithm 0;
#X text 331 6 Put your favourite algorithms here;
#X text 57 216 Additive synthesis;
#X obj 342 206 r startall;
#X text 58 374 2-operator FM;
#X text 332 378 3-operator FM;
#X text 654 376 Algo x;
#X text 66 549 2 times 3-operator FM;
#X msg 50 63 \; algo-op6 0 100 0 0 0 0 0 \; algo-op2 0 0 100 0 0 0
0 \; algo-op3 0 0 0 100 0 0 0 \; algo-op4 0 0 0 0 100 0 0 \; algo-op5
0 0 0 0 0 100 0 \; algo-op1 0 100 \;;
#X msg 58 242 \; algo-op6 0 0 0 0 0 0 100 \; algo-op2 0 0 0 0 0 0 100
\; algo-op3 0 0 0 0 0 0 100 \; algo-op4 0 0 0 0 0 0 100 \; algo-op5
0 0 0 0 0 0 100 \; algo-op1 0 100 \;;
#X msg 352 64 \; algo-op6 0 100 0 0 0 0 0 \; algo-op2 0 0 0 0 100 0
0 \; algo-op3 0 0 0 0 0 0 100 \; algo-op4 0 0 0 0 100 0 0 \; algo-op5
0 0 0 0 0 100 0 \; algo-op1 0 100 \;;
#X msg 654 65 \; algo-op6 0 100 0 0 0 0 0 \; algo-op2 0 0 100 0 0 0
0 \; algo-op3 0 0 0 100 0 0 0 \; algo-op4 0 0 0 0 0 0 100 \; algo-op5
0 0 0 0 0 100 0 \; algo-op1 0 100 \;;
#X msg 655 245 \; algo-op6 100 100 0 0 0 0 0 \; algo-op2 0 100 100
0 0 0 0 \; algo-op3 0 0 0 100 0 0 0 \; algo-op4 0 0 0 0 0 0 100 \;
algo-op5 0 0 0 0 0 100 0 \; algo-op1 0 100 \;;
#X msg 342 242 \; algo-op6 0 0 100 0 0 0 0 \; algo-op2 0 0 0 0 100
0 0 \; algo-op3 0 0 0 0 0 0 100 \; algo-op4 0 0 100 0 0 0 0 \; algo-op5
0 0 0 0 0 100 0 \; algo-op1 10 100 \;;
#X msg 59 400 \; algo-op6 0 0 0 0 0 0 0 \; algo-op2 0 0 0 0 0 0 0 \;
algo-op3 0 0 0 0 0 0 0 \; algo-op4 0 0 0 0 0 0 0 \; algo-op5 0 0 0
0 0 100 0 \; algo-op1 0 100 \;;
#X msg 332 405 \; algo-op6 0 0 0 0 0 0 0 \; algo-op2 0 0 0 0 0 0 0
\; algo-op3 0 0 0 0 0 0 0 \; algo-op4 0 0 0 0 100 0 0 \; algo-op5 0
0 0 0 0 100 0 \; algo-op1 0 100 \;;
#X msg 655 402 \; algo-op6 0 100 0 0 0 0 0 \; algo-op2 0 0 0 0 0 0
100 \; algo-op3 0 0 0 100 0 0 0 \; algo-op4 0 0 0 0 0 0 100 \; algo-op5
0 0 0 0 0 100 0 \; algo-op1 0 100 \;;
#X msg 58 576 \; algo-op6 0 100 0 0 0 0 0 \; algo-op2 0 0 100 0 0 0
0 \; algo-op3 0 0 0 0 0 0 100 \; algo-op4 0 0 0 0 100 0 0 \; algo-op5
0 0 0 0 0 100 0 \; algo-op1 0 100 \;;
#X connect 2 0 12 0;
#X restore 1002 66 pd algorithm;
#X obj 1005 138 editenvelopes;
#X text 25 172 First you should start everything with [startall bang(.
After that \, you might want to play with the algorithms. In the presets
window \, one can change the values for modulation and index of the
operators.;
#X obj 770 113 edit-index-envelopes;
#N canvas 434 138 686 407 main-amp-env 0;
#X floatatom 56 156 4 0 100 0 - - -;
#X floatatom 108 155 4 1 100 0 - - -;
#X floatatom 156 155 4 0 100 0 - - -;
#X floatatom 205 155 4 1 100 0 - - -;
#X floatatom 257 156 4 0 100 0 - - -;
#X floatatom 310 157 4 1 100 0 - - -;
#X obj 108 178 t b f;
#X obj 157 178 t b f;
#X obj 206 178 t b f;
#X obj 257 180 t b f;
#X obj 309 182 t b f;
#X floatatom 363 159 4 0 100 0 - - -;
#X floatatom 416 160 4 1 100 0 - - -;
#X obj 363 183 t b f;
#X obj 415 185 t b f;
#X floatatom 492 159 1 0 1 0 - - -;
#X obj 491 184 t b f;
#X text 473 135 autorelease?;
#X obj 150 91 unpack 0 0 0 0 0 0 0 0 0;
#X obj 172 274 pack 0 0 0 0 0 0 0 0 0;
#X obj 172 294 s ampenv;
#X obj 151 70 r ampenv-in;
#X obj 453 72 s ampenv-in;
#X obj 454 21 loadbang;
#X msg 453 43 100 100 80 50 60 10 0 10 0;
#X text 363 135 level-4;
#X text 420 135 rate-4;
#X text 312 135 rate-3;
#X text 255 135 level-3;
#X text 204 135 rate-2;
#X text 149 135 level-2;
#X text 99 135 rate-1;
#X text 41 136 level-1;
#X msg 473 297 100;
#X msg 524 296 200;
#X floatatom 472 322 4 0 0 0 - - -;
#X floatatom 525 323 4 0 0 0 - - -;
#X obj 452 359 s risefac;
#X obj 535 358 s fallfac;
#X connect 0 0 19 0;
#X connect 1 0 6 0;
#X connect 2 0 7 0;
#X connect 3 0 8 0;
#X connect 4 0 9 0;
#X connect 5 0 10 0;
#X connect 6 0 19 0;
#X connect 6 1 19 1;
#X connect 7 0 19 0;
#X connect 7 1 19 2;
#X connect 8 0 19 0;
#X connect 8 1 19 3;
#X connect 9 0 19 0;
#X connect 9 1 19 4;
#X connect 10 0 19 0;
#X connect 10 1 19 5;
#X connect 11 0 13 0;
#X connect 12 0 14 0;
#X connect 13 0 19 0;
#X connect 13 1 19 6;
#X connect 14 0 19 0;
#X connect 14 1 19 7;
#X connect 15 0 16 0;
#X connect 16 0 19 0;
#X connect 16 1 19 8;
#X connect 18 0 0 0;
#X connect 18 1 1 0;
#X connect 18 2 2 0;
#X connect 18 3 3 0;
#X connect 18 4 4 0;
#X connect 18 5 5 0;
#X connect 18 6 11 0;
#X connect 18 7 12 0;
#X connect 18 8 15 0;
#X connect 19 0 20 0;
#X connect 21 0 18 0;
#X connect 23 0 24 0;
#X connect 24 0 22 0;
#X connect 33 0 35 0;
#X connect 34 0 36 0;
#X connect 35 0 37 0;
#X connect 36 0 38 0;
#X restore 771 88 pd main-amp-env;
#X text 768 65 Edit amp and index envelopes;
#X text 950 117 Don't edit the mod envelopes!;
#X obj 882 579 save-settings;
#X msg 872 515 bang;
#X floatatom 919 513 4 0 0 0 - - -;
#X msg 985 516 bang;
#X floatatom 1032 514 5 0 0 0 - - -;
#X obj 995 580 restore-settings;
#X obj 882 549 f 0;
#X obj 995 550 f 0;
#X text 880 624 to save or restore all settings.;
#X msg 50 594 250;
#X text 881 610 Select save slot \, then bang;
#X obj 1005 93 dx7algorithms;
#X text 917 494 slot #;
#X text 1030 494 slot #;
#X text 24 234 The [tracker] is a small 16-step sequencer. Open it
to change the sequence of notes.;
#X text 941 198 DX7-algorithm;
#X msg 933 262 \; \$1-dx7-algo bang \;;
#X floatatom 1008 220 4 1 32 0 - - -;
#X msg 919 221 bang;
#X obj 972 243 f 1;
#X obj 1012 243 s algochoosen;
#X obj 1040 200 r algochoosen-in;
#X obj 465 116 notein;
#X msg 45 27 \; startall bang;
#X obj 375 45 loadbang;
#X obj 356 75 s startall;
#X connect 2 0 3 0;
#X connect 3 0 13 0;
#X connect 6 0 7 1;
#X connect 7 0 6 0;
#X connect 8 0 7 2;
#X connect 10 0 6 0;
#X connect 11 0 10 0;
#X connect 12 0 14 0;
#X connect 14 0 25 0;
#X connect 14 1 25 1;
#X connect 15 0 2 0;
#X connect 16 0 15 0;
#X connect 16 0 61 0;
#X connect 19 0 14 2;
#X connect 20 0 18 0;
#X connect 22 0 7 0;
#X connect 23 0 7 0;
#X connect 24 0 7 0;
#X connect 25 0 26 0;
#X connect 25 1 26 1;
#X connect 25 2 26 2;
#X connect 26 0 27 0;
#X connect 27 0 22 0;
#X connect 27 1 23 0;
#X connect 27 2 24 0;
#X connect 27 3 28 0;
#X connect 27 4 29 0;
#X connect 27 5 30 0;
#X connect 27 6 31 0;
#X connect 27 7 32 0;
#X connect 28 0 7 0;
#X connect 29 0 7 0;
#X connect 30 0 7 0;
#X connect 31 0 7 0;
#X connect 32 0 7 0;
#X connect 36 0 12 0;
#X connect 37 0 12 0;
#X connect 53 0 58 0;
#X connect 54 0 58 1;
#X connect 55 0 59 0;
#X connect 56 0 59 1;
#X connect 58 0 52 0;
#X connect 59 0 57 0;
#X connect 61 0 20 0;
#X connect 69 0 71 1;
#X connect 69 0 72 0;
#X connect 70 0 71 0;
#X connect 71 0 68 0;
#X connect 73 0 69 0;
#X connect 74 0 25 0;
#X connect 74 1 25 1;
#X connect 76 0 77 0;
