#N canvas 10 73 1242 757 10;
#X obj 93 316 phaseosc~;
#X obj 292 306 phaseosc~;
#X obj 453 310 phaseosc~;
#X text 112 101 mod1;
#X text 199 103 index1;
#X text 283 187 mod2;
#X text 390 188 index2;
#X obj 976 310 phaseosc~;
#X text 484 77 mod3;
#X text 533 78 index3;
#X obj 696 722 *~;
#X text 735 710 mixer;
#X text 958 495 phase mod \, base freq \, modfac \, index/amp;
#X text 958 472 phaseosc~ inlets:;
#X obj 696 746 outlet~;
#X obj 1177 41 inlet~;
#X text 1010 21 Base Frequency;
#X text 1177 17 Main Amp;
#X obj 305 163 r mod2;
#X obj 403 163 r index2;
#X text 705 310 osc4;
#X text 892 308 osc5;
#X text 529 309 osc3;
#X text 369 306 osc2;
#X obj 292 281 catch~ \$0-phase2;
#X obj 454 283 catch~ \$0-phase3;
#X obj 616 287 catch~ \$0-phase4;
#X obj 817 279 catch~ \$0-phase5;
#X obj 96 400 *~ 0;
#X obj 96 422 *~ 0;
#X obj 96 444 *~ 0;
#X obj 95 466 *~ 0;
#X obj 95 488 *~ 0;
#X obj 95 508 *~ 0;
#X obj 96 529 *~ 0;
#X obj 291 397 *~ 0;
#X obj 291 419 *~ 0;
#X obj 291 441 *~ 0;
#X obj 290 463 *~ 0;
#X obj 290 485 *~ 0;
#X obj 290 505 *~ 0;
#X obj 291 526 *~ 0;
#X obj 290 553 throw~ \$0-phase1;
#X obj 289 575 throw~ \$0-phase2;
#X obj 292 598 throw~ \$0-phase3;
#X obj 290 619 throw~ \$0-phase4;
#X obj 291 641 throw~ \$0-phase5;
#X obj 292 662 throw~ \$0-phase6;
#X obj 335 398 r osc2-1;
#X obj 335 422 r osc2-2;
#X obj 337 443 r osc2-3;
#X obj 337 465 r osc2-4;
#X obj 338 486 r osc2-5;
#X obj 339 507 r osc2-6;
#X obj 343 528 r osc2out;
#X obj 453 394 *~ 0;
#X obj 453 416 *~ 0;
#X obj 453 438 *~ 0;
#X obj 452 460 *~ 0;
#X obj 452 482 *~ 0;
#X obj 452 502 *~ 0;
#X obj 453 523 *~ 0;
#X obj 452 550 throw~ \$0-phase1;
#X obj 451 572 throw~ \$0-phase2;
#X obj 454 595 throw~ \$0-phase3;
#X obj 452 616 throw~ \$0-phase4;
#X obj 453 638 throw~ \$0-phase5;
#X obj 454 659 throw~ \$0-phase6;
#X obj 497 395 r osc3-1;
#X obj 498 419 r osc3-2;
#X obj 499 440 r osc3-3;
#X obj 499 462 r osc3-4;
#X obj 500 483 r osc3-5;
#X obj 501 504 r osc3-6;
#X obj 505 525 r osc3out;
#X obj 616 312 phaseosc~;
#X obj 608 391 *~ 0;
#X obj 608 413 *~ 0;
#X obj 608 435 *~ 0;
#X obj 607 457 *~ 0;
#X obj 607 479 *~ 0;
#X obj 607 499 *~ 0;
#X obj 608 520 *~ 0;
#X obj 607 547 throw~ \$0-phase1;
#X obj 606 569 throw~ \$0-phase2;
#X obj 609 592 throw~ \$0-phase3;
#X obj 607 613 throw~ \$0-phase4;
#X obj 608 635 throw~ \$0-phase5;
#X obj 609 656 throw~ \$0-phase6;
#X obj 818 309 phaseosc~;
#X obj 821 391 *~ 0;
#X obj 821 413 *~ 0;
#X obj 821 435 *~ 0;
#X obj 820 457 *~ 0;
#X obj 820 479 *~ 0;
#X obj 820 499 *~ 0;
#X obj 821 520 *~ 0;
#X obj 820 547 throw~ \$0-phase1;
#X obj 819 569 throw~ \$0-phase2;
#X obj 822 592 throw~ \$0-phase3;
#X obj 820 613 throw~ \$0-phase4;
#X obj 821 635 throw~ \$0-phase5;
#X obj 822 656 throw~ \$0-phase6;
#X obj 865 392 r osc5-1;
#X obj 866 416 r osc5-2;
#X obj 867 437 r osc5-3;
#X obj 867 459 r osc5-4;
#X obj 867 480 r osc5-5;
#X obj 869 501 r osc5-6;
#X obj 873 522 r osc5out;
#X obj 652 392 r osc4-1;
#X obj 653 416 r osc4-2;
#X obj 654 437 r osc4-3;
#X obj 654 459 r osc4-4;
#X obj 655 480 r osc4-5;
#X obj 656 501 r osc4-6;
#X obj 977 350 *~ 0;
#X obj 979 399 *~ 0;
#X obj 170 76 *~ 1;
#X obj 88 71 *~ 1;
#X obj 368 162 *~ 1;
#X obj 266 160 *~ 1;
#X obj 303 112 r mod-op2;
#X obj 405 114 r index-op2;
#X obj 545 55 *~ 1;
#X obj 443 53 *~ 1;
#X obj 482 56 r mod3;
#X obj 580 56 r index3;
#X obj 664 161 *~ 1;
#X obj 562 159 *~ 1;
#X obj 601 162 r mod4;
#X obj 699 162 r index4;
#X text 652 184 index4;
#X text 603 183 mod4;
#X obj 881 62 *~ 1;
#X obj 779 60 *~ 1;
#X obj 816 12 r mod-op2;
#X text 820 84 mod5;
#X text 869 85 index5;
#X obj 916 63 r index5;
#X obj 818 64 r mod5;
#X obj 1121 38 inlet;
#X obj 1133 155 sel 0;
#X obj 1182 155 t b;
#X msg 1183 184 1;
#X obj 1141 235 s \$0-noteon;
#X obj 19 22 r \$0-noteon;
#X obj 1127 176 t b;
#X msg 1128 198 0;
#X obj 378 3 r \$0-noteon;
#X obj 301 92 r \$0-noteon;
#X obj 629 86 r \$0-noteon;
#X obj 725 10 r \$0-noteon;
#X obj 1142 260 r \$0-noteon;
#X floatatom 1143 283 4 0 0;
#X floatatom 819 102 4 0 0;
#X obj 83 49 env4seg;
#X obj 171 49 env4seg;
#X obj 267 133 env4seg;
#X obj 369 135 env4seg;
#X obj 444 26 env4seg;
#X obj 546 28 env4seg;
#X obj 780 33 env4seg;
#X obj 882 35 env4seg;
#X obj 563 132 env4seg;
#X obj 665 134 env4seg;
#X obj 480 5 r mod-op3;
#X obj 599 111 r mod-op4;
#X obj 582 7 r index-op3;
#X obj 700 113 r index-op4;
#X obj 918 14 r index-op1;
#X obj 568 242 r \$0-osc4freq;
#X obj 406 239 r \$0-osc3freq;
#X obj 767 241 r \$0-osc5freq;
#X obj 997 40 inlet;
#X obj 998 66 s \$0-osc1freq;
#X obj 999 92 s \$0-osc2freq;
#X obj 997 118 s \$0-osc3freq;
#X obj 998 143 s \$0-osc4freq;
#X obj 999 168 s \$0-osc5freq;
#X obj 39 288 <= 0;
#X obj 31 308 spigot;
#X obj 247 284 <= 0;
#X obj 239 304 spigot;
#X obj 239 242 r \$0-osc2freq;
#X obj 247 263 r osc2fixed;
#X obj 420 280 <= 0;
#X obj 408 302 spigot;
#X obj 416 261 r osc3fixed;
#X obj 575 287 <= 0;
#X obj 567 307 spigot;
#X obj 575 266 r osc4fixed;
#X obj 779 282 <= 0;
#X obj 771 302 spigot;
#X obj 779 261 r osc5fixed;
#X obj 409 346 spigot;
#X obj 417 326 > 0;
#X obj 238 351 spigot;
#X obj 246 331 > 0;
#X obj 32 352 spigot;
#X obj 40 332 > 0;
#X obj 568 350 spigot;
#X obj 576 330 > 0;
#X obj 767 347 spigot;
#X obj 775 327 > 0;
#X obj 660 522 r osc4out;
#X floatatom 1016 236 4 0 0;
#X obj 1016 257 sig~;
#X obj 998 189 s \$0-osc6freq;
#X text 1065 308 osc1 carrier;
#X obj 976 284 catch~ \$0-phase1;
#X obj 1006 330 r \$0-osc1freq;
#X obj 1026 352 r osc1-1;
#X obj 978 375 throw~ \$0-phase1;
#X obj 1031 401 r osc1out;
#X obj 31 246 r \$0-osc6freq;
#X obj 39 267 r osc6fixed;
#X obj 95 290 catch~ \$0-phase6;
#X obj 125 23 r mod-op6;
#X obj 207 28 r index-op6;
#X obj 122 74 r mod6;
#X obj 207 77 r index6;
#X obj 140 401 r osc6-1;
#X obj 140 425 r osc6-2;
#X obj 142 446 r osc6-3;
#X obj 142 468 r osc6-4;
#X obj 143 489 r osc6-5;
#X obj 144 510 r osc6-6;
#X obj 147 531 r osc6out;
#X obj 95 556 throw~ \$0-phase6;
#X obj 94 578 throw~ \$0-phase6;
#X obj 97 601 throw~ \$0-phase6;
#X obj 95 622 throw~ \$0-phase6;
#X obj 96 644 throw~ \$0-phase6;
#X obj 97 665 throw~ \$0-phase6;
#X text 168 316 osc6;
#X obj 1016 213 r mod1;
#X floatatom 1031 432 4 0 0;
#X connect 0 0 28 0;
#X connect 0 0 29 0;
#X connect 0 0 30 0;
#X connect 0 0 31 0;
#X connect 0 0 32 0;
#X connect 0 0 33 0;
#X connect 0 0 34 0;
#X connect 1 0 35 0;
#X connect 1 0 36 0;
#X connect 1 0 37 0;
#X connect 1 0 38 0;
#X connect 1 0 39 0;
#X connect 1 0 40 0;
#X connect 1 0 41 0;
#X connect 2 0 55 0;
#X connect 2 0 56 0;
#X connect 2 0 57 0;
#X connect 2 0 58 0;
#X connect 2 0 59 0;
#X connect 2 0 60 0;
#X connect 2 0 61 0;
#X connect 7 0 116 0;
#X connect 7 0 117 0;
#X connect 10 0 14 0;
#X connect 15 0 7 3;
#X connect 15 0 10 1;
#X connect 18 0 121 1;
#X connect 19 0 120 1;
#X connect 24 0 1 0;
#X connect 25 0 2 0;
#X connect 26 0 75 0;
#X connect 27 0 89 0;
#X connect 28 0 229 0;
#X connect 29 0 230 0;
#X connect 30 0 231 0;
#X connect 31 0 232 0;
#X connect 32 0 233 0;
#X connect 33 0 234 0;
#X connect 34 0 10 0;
#X connect 35 0 42 0;
#X connect 36 0 43 0;
#X connect 37 0 44 0;
#X connect 38 0 45 0;
#X connect 39 0 46 0;
#X connect 40 0 47 0;
#X connect 41 0 10 0;
#X connect 48 0 35 1;
#X connect 49 0 36 1;
#X connect 50 0 37 1;
#X connect 51 0 38 1;
#X connect 52 0 39 1;
#X connect 53 0 40 1;
#X connect 54 0 41 1;
#X connect 55 0 62 0;
#X connect 56 0 63 0;
#X connect 57 0 64 0;
#X connect 58 0 65 0;
#X connect 59 0 66 0;
#X connect 60 0 67 0;
#X connect 61 0 10 0;
#X connect 68 0 55 1;
#X connect 69 0 56 1;
#X connect 70 0 57 1;
#X connect 71 0 58 1;
#X connect 72 0 59 1;
#X connect 73 0 60 1;
#X connect 74 0 61 1;
#X connect 75 0 76 0;
#X connect 75 0 77 0;
#X connect 75 0 78 0;
#X connect 75 0 79 0;
#X connect 75 0 80 0;
#X connect 75 0 81 0;
#X connect 75 0 82 0;
#X connect 76 0 83 0;
#X connect 77 0 84 0;
#X connect 78 0 85 0;
#X connect 79 0 86 0;
#X connect 80 0 87 0;
#X connect 81 0 88 0;
#X connect 82 0 10 0;
#X connect 89 0 90 0;
#X connect 89 0 91 0;
#X connect 89 0 92 0;
#X connect 89 0 93 0;
#X connect 89 0 94 0;
#X connect 89 0 95 0;
#X connect 89 0 96 0;
#X connect 90 0 97 0;
#X connect 91 0 98 0;
#X connect 92 0 99 0;
#X connect 93 0 100 0;
#X connect 94 0 101 0;
#X connect 95 0 102 0;
#X connect 96 0 10 0;
#X connect 103 0 90 1;
#X connect 104 0 91 1;
#X connect 105 0 92 1;
#X connect 106 0 93 1;
#X connect 107 0 94 1;
#X connect 108 0 95 1;
#X connect 109 0 96 1;
#X connect 110 0 76 1;
#X connect 111 0 77 1;
#X connect 112 0 78 1;
#X connect 113 0 79 1;
#X connect 114 0 80 1;
#X connect 115 0 81 1;
#X connect 116 0 213 0;
#X connect 117 0 10 0;
#X connect 118 0 0 3;
#X connect 119 0 0 2;
#X connect 120 0 1 3;
#X connect 121 0 1 2;
#X connect 122 0 158 1;
#X connect 123 0 159 1;
#X connect 124 0 2 3;
#X connect 125 0 2 2;
#X connect 126 0 125 1;
#X connect 127 0 124 1;
#X connect 128 0 75 3;
#X connect 129 0 75 2;
#X connect 130 0 129 1;
#X connect 131 0 128 1;
#X connect 134 0 89 3;
#X connect 135 0 89 2;
#X connect 136 0 162 1;
#X connect 139 0 134 1;
#X connect 140 0 155 0;
#X connect 140 0 135 1;
#X connect 141 0 142 0;
#X connect 142 0 147 0;
#X connect 142 1 143 0;
#X connect 143 0 144 0;
#X connect 144 0 145 0;
#X connect 146 0 156 0;
#X connect 146 0 157 0;
#X connect 147 0 148 0;
#X connect 148 0 145 0;
#X connect 149 0 160 0;
#X connect 149 0 161 0;
#X connect 150 0 158 0;
#X connect 150 0 159 0;
#X connect 151 0 164 0;
#X connect 151 0 165 0;
#X connect 152 0 162 0;
#X connect 152 0 163 0;
#X connect 153 0 154 0;
#X connect 156 0 119 0;
#X connect 157 0 118 0;
#X connect 158 0 121 0;
#X connect 159 0 120 0;
#X connect 160 0 125 0;
#X connect 161 0 124 0;
#X connect 162 0 135 0;
#X connect 163 0 134 0;
#X connect 164 0 129 0;
#X connect 165 0 128 0;
#X connect 166 0 160 1;
#X connect 167 0 164 1;
#X connect 168 0 161 1;
#X connect 169 0 165 1;
#X connect 170 0 163 1;
#X connect 171 0 190 0;
#X connect 172 0 187 0;
#X connect 173 0 193 0;
#X connect 174 0 175 0;
#X connect 174 0 176 0;
#X connect 174 0 177 0;
#X connect 174 0 178 0;
#X connect 174 0 179 0;
#X connect 174 0 208 0;
#X connect 180 0 181 1;
#X connect 181 0 0 1;
#X connect 182 0 183 1;
#X connect 183 0 1 1;
#X connect 184 0 183 0;
#X connect 185 0 182 0;
#X connect 185 0 198 0;
#X connect 185 0 197 0;
#X connect 186 0 187 1;
#X connect 187 0 2 1;
#X connect 188 0 186 0;
#X connect 188 0 196 0;
#X connect 188 0 195 0;
#X connect 189 0 190 1;
#X connect 190 0 75 1;
#X connect 191 0 189 0;
#X connect 191 0 202 0;
#X connect 191 0 201 0;
#X connect 192 0 193 1;
#X connect 193 0 89 1;
#X connect 194 0 192 0;
#X connect 194 0 204 0;
#X connect 194 0 203 0;
#X connect 195 0 2 1;
#X connect 196 0 195 1;
#X connect 197 0 1 1;
#X connect 198 0 197 1;
#X connect 199 0 0 1;
#X connect 200 0 199 1;
#X connect 201 0 75 1;
#X connect 202 0 201 1;
#X connect 203 0 89 1;
#X connect 204 0 203 1;
#X connect 205 0 82 1;
#X connect 206 0 207 0;
#X connect 207 0 7 2;
#X connect 210 0 7 0;
#X connect 211 0 7 1;
#X connect 212 0 116 1;
#X connect 214 0 117 1;
#X connect 214 0 237 0;
#X connect 215 0 181 0;
#X connect 216 0 180 0;
#X connect 216 0 200 0;
#X connect 216 0 199 0;
#X connect 217 0 0 0;
#X connect 218 0 156 1;
#X connect 219 0 157 1;
#X connect 220 0 119 1;
#X connect 221 0 118 1;
#X connect 222 0 28 1;
#X connect 223 0 29 1;
#X connect 224 0 30 1;
#X connect 225 0 31 1;
#X connect 226 0 32 1;
#X connect 227 0 33 1;
#X connect 228 0 34 1;
#X connect 236 0 206 0;
