#N canvas 74 71 1158 800 10;
#X text 147 4 mod index settings;
#X text 826 201 fixed oscils;
#X obj 980 501 f 1;
#X floatatom 1036 460 4 0 0;
#X obj 862 745 print text;
#X msg 932 694 print;
#X msg 936 627 rewind;
#X obj 827 60 t b f;
#X obj 858 88 s \$0-presetno;
#X obj 1036 427 r \$0-presetno;
#X obj 827 25 inlet;
#N canvas 36 0 1222 822 savealgos 0;
#X obj 89 277 r p-osc2-1;
#X obj 161 277 r p-osc2-2;
#X obj 239 278 r p-osc2-3;
#X obj 315 278 r p-osc2-4;
#X obj 389 279 r p-osc2-5;
#X obj 454 279 r p-osc2-6;
#X obj 520 279 r p-osc2out;
#X obj 79 482 r p-osc3-1;
#X obj 151 482 r p-osc3-2;
#X obj 229 483 r p-osc3-3;
#X obj 379 484 r p-osc3-5;
#X obj 444 484 r p-osc3-6;
#X obj 510 484 r p-osc3out;
#X obj 669 200 r p-osc4-1;
#X obj 741 200 r p-osc4-2;
#X obj 819 201 r p-osc4-3;
#X obj 895 201 r p-osc4-4;
#X obj 969 202 r p-osc4-5;
#X obj 1034 202 r p-osc4-6;
#X obj 1100 202 r p-osc4out;
#X obj 305 483 r p-osc3-4;
#X obj 686 426 r p-osc5-1;
#X obj 758 426 r p-osc5-2;
#X obj 836 427 r p-osc5-3;
#X obj 912 427 r p-osc5-4;
#X obj 986 428 r p-osc5-5;
#X obj 1051 428 r p-osc5-6;
#X obj 1117 428 r p-osc5out;
#X obj 183 213 pack 0 0 0 0 0 0 0;
#X obj 521 128 *;
#X obj 456 129 *;
#X obj 392 130 *;
#X obj 318 129 *;
#X obj 242 129 *;
#X obj 163 129 *;
#X obj 89 128 *;
#X msg 41 101 100;
#X obj 56 158 r \$0-sendsettings;
#X obj 172 397 pack 0 0 0 0 0 0 0;
#X obj 510 312 *;
#X obj 445 313 *;
#X obj 381 314 *;
#X obj 307 313 *;
#X obj 231 313 *;
#X obj 152 313 *;
#X obj 78 312 *;
#X msg 45 291 100;
#X obj 45 342 r \$0-sendsettings;
#X obj 158 604 pack 0 0 0 0 0 0 0;
#X obj 496 519 *;
#X obj 431 520 *;
#X obj 367 521 *;
#X obj 293 520 *;
#X obj 217 520 *;
#X obj 138 520 *;
#X obj 64 519 *;
#X msg 31 498 100;
#X obj 31 549 r \$0-sendsettings;
#X obj 746 314 pack 0 0 0 0 0 0 0;
#X obj 1084 229 *;
#X obj 1019 230 *;
#X obj 955 231 *;
#X obj 881 230 *;
#X obj 805 230 *;
#X obj 726 230 *;
#X obj 652 229 *;
#X msg 619 208 100;
#X obj 619 259 r \$0-sendsettings;
#X obj 761 543 pack 0 0 0 0 0 0 0;
#X obj 1099 458 *;
#X obj 1034 459 *;
#X obj 970 460 *;
#X obj 896 459 *;
#X obj 820 459 *;
#X obj 741 459 *;
#X obj 667 458 *;
#X msg 623 433 100;
#X obj 634 488 r \$0-sendsettings;
#X obj 937 65 *;
#X obj 872 66 *;
#X obj 886 139 pack 0 0;
#X msg 758 27 100;
#X obj 750 100 r \$0-sendsettings;
#X obj 170 427 s algo-op2;
#X obj 157 637 s algo-op3;
#X obj 743 344 s algo-op4;
#X obj 761 579 s algo-op5;
#X floatatom 106 76 4 0 0;
#X floatatom 144 190 4 0 0;
#X floatatom 881 103 4 0 0;
#X obj 639 312 r \$0-sendbang;
#X obj 974 121 r \$0-sendbang;
#X obj 638 522 r \$0-sendbang;
#X obj 55 605 r \$0-sendbang;
#X obj 69 398 r \$0-sendbang;
#X obj 80 212 r \$0-sendbang;
#X floatatom 937 103 4 0 0;
#X floatatom 536 518 4 0 0;
#X floatatom 963 42 4 0 0;
#X floatatom 778 53 4 0 0;
#X floatatom 258 78 4 0 0;
#X obj 891 37 r p-osc1-1;
#X obj 962 21 r p-osc1out;
#X obj 888 171 s algo-op1;
#X obj 106 43 r p-osc6-1;
#X obj 256 43 r p-osc6-3;
#X obj 177 84 r p-osc6-2;
#X obj 336 62 r p-osc6-4;
#X obj 405 86 r p-osc6-5;
#X obj 470 63 r p-osc6-6;
#X obj 536 86 r p-osc6out;
#X obj 184 241 s algo-op6;
#X connect 0 0 45 1;
#X connect 1 0 44 1;
#X connect 2 0 43 1;
#X connect 3 0 42 1;
#X connect 4 0 41 1;
#X connect 5 0 40 1;
#X connect 6 0 39 1;
#X connect 7 0 55 1;
#X connect 8 0 54 1;
#X connect 9 0 53 1;
#X connect 10 0 51 1;
#X connect 11 0 50 1;
#X connect 12 0 97 0;
#X connect 13 0 65 1;
#X connect 14 0 64 1;
#X connect 15 0 63 1;
#X connect 16 0 62 1;
#X connect 17 0 61 1;
#X connect 18 0 60 1;
#X connect 19 0 59 1;
#X connect 20 0 52 1;
#X connect 21 0 75 1;
#X connect 22 0 74 1;
#X connect 23 0 73 1;
#X connect 24 0 72 1;
#X connect 25 0 71 1;
#X connect 26 0 70 1;
#X connect 27 0 69 1;
#X connect 28 0 111 0;
#X connect 29 0 28 6;
#X connect 30 0 28 5;
#X connect 31 0 28 4;
#X connect 32 0 28 3;
#X connect 33 0 28 2;
#X connect 34 0 28 1;
#X connect 35 0 88 0;
#X connect 36 0 35 0;
#X connect 36 0 34 0;
#X connect 36 0 33 0;
#X connect 36 0 32 0;
#X connect 36 0 31 0;
#X connect 36 0 30 0;
#X connect 36 0 29 0;
#X connect 37 0 36 0;
#X connect 38 0 83 0;
#X connect 39 0 38 6;
#X connect 40 0 38 5;
#X connect 41 0 38 4;
#X connect 42 0 38 3;
#X connect 43 0 38 2;
#X connect 44 0 38 1;
#X connect 45 0 38 0;
#X connect 46 0 45 0;
#X connect 46 0 44 0;
#X connect 46 0 43 0;
#X connect 46 0 42 0;
#X connect 46 0 41 0;
#X connect 46 0 40 0;
#X connect 46 0 39 0;
#X connect 47 0 46 0;
#X connect 48 0 84 0;
#X connect 49 0 48 6;
#X connect 50 0 48 5;
#X connect 51 0 48 4;
#X connect 52 0 48 3;
#X connect 53 0 48 2;
#X connect 54 0 48 1;
#X connect 55 0 48 0;
#X connect 56 0 55 0;
#X connect 56 0 54 0;
#X connect 56 0 53 0;
#X connect 56 0 52 0;
#X connect 56 0 51 0;
#X connect 56 0 50 0;
#X connect 56 0 49 0;
#X connect 57 0 56 0;
#X connect 58 0 85 0;
#X connect 59 0 58 6;
#X connect 60 0 58 5;
#X connect 61 0 58 4;
#X connect 62 0 58 3;
#X connect 63 0 58 2;
#X connect 64 0 58 1;
#X connect 65 0 58 0;
#X connect 66 0 65 0;
#X connect 66 0 64 0;
#X connect 66 0 63 0;
#X connect 66 0 62 0;
#X connect 66 0 61 0;
#X connect 66 0 60 0;
#X connect 66 0 59 0;
#X connect 67 0 66 0;
#X connect 68 0 86 0;
#X connect 69 0 68 6;
#X connect 70 0 68 5;
#X connect 71 0 68 4;
#X connect 72 0 68 3;
#X connect 73 0 68 2;
#X connect 74 0 68 1;
#X connect 75 0 68 0;
#X connect 76 0 75 0;
#X connect 76 0 74 0;
#X connect 76 0 73 0;
#X connect 76 0 72 0;
#X connect 76 0 71 0;
#X connect 76 0 70 0;
#X connect 76 0 69 0;
#X connect 77 0 76 0;
#X connect 78 0 96 0;
#X connect 79 0 89 0;
#X connect 80 0 103 0;
#X connect 81 0 99 0;
#X connect 82 0 81 0;
#X connect 87 0 35 1;
#X connect 88 0 28 0;
#X connect 89 0 80 0;
#X connect 90 0 58 0;
#X connect 91 0 80 0;
#X connect 92 0 68 0;
#X connect 93 0 48 0;
#X connect 94 0 38 0;
#X connect 95 0 28 0;
#X connect 96 0 80 1;
#X connect 97 0 49 1;
#X connect 98 0 78 1;
#X connect 99 0 79 0;
#X connect 99 0 78 0;
#X connect 100 0 33 1;
#X connect 101 0 79 1;
#X connect 102 0 98 0;
#X connect 104 0 87 0;
#X connect 105 0 100 0;
#X connect 106 0 34 1;
#X connect 107 0 32 1;
#X connect 108 0 31 1;
#X connect 109 0 30 1;
#X connect 110 0 29 1;
#X restore 247 501 pd savealgos;
#N canvas 0 0 992 836 saveenvs 0;
#X obj 130 21 r p-ampenv;
#X obj 129 275 r p-index-op2;
#X obj 131 409 r p-index-op3;
#X obj 133 535 r p-index-op4;
#X obj 138 662 r p-index-op5;
#X obj 613 151 r p-mod-op2;
#X obj 615 285 r p-mod-op3;
#X obj 617 411 r p-mod-op4;
#X obj 622 538 r p-mod-op5;
#X obj 348 134 t b l;
#X obj 822 81 r \$0-sendbang;
#X obj 130 62 s ampenv-in;
#X obj 129 309 s index-op2-env;
#X obj 129 442 s index-op3-env;
#X obj 132 573 s index-op4-env;
#X obj 136 699 s index-op5-env;
#X obj 613 188 s mod-op2-env;
#X obj 617 320 s mod-op3-env;
#X obj 617 439 s mod-op4-env;
#X obj 620 570 s mod-op5-env;
#X obj 144 771 s index-op6-env;
#X obj 145 737 r p-index-op6;
#X obj 632 627 r p-mod-op6;
#X obj 630 659 s mod-op6-env;
#X connect 0 0 11 0;
#X connect 1 0 12 0;
#X connect 2 0 13 0;
#X connect 3 0 14 0;
#X connect 4 0 15 0;
#X connect 5 0 16 0;
#X connect 6 0 17 0;
#X connect 7 0 18 0;
#X connect 8 0 19 0;
#X connect 21 0 20 0;
#X connect 22 0 23 0;
#X restore 248 534 pd saveenvs;
#X obj 827 114 s \$0-restorebang;
#X obj 910 429 r \$0-restorebang;
#X floatatom 397 73 4 0 0;
#X floatatom 472 69 4 0 0;
#X floatatom 546 68 4 0 0;
#X floatatom 612 66 4 0 0;
#X floatatom 683 64 4 0 0;
#X floatatom 21 78 4 0 0;
#X msg 904 598 clear;
#X msg 933 651 bang;
#X obj 862 714 qlist;
#X msg 980 546 read \$1-preset.pdx7;
#X floatatom 106 77 4 0 0;
#X floatatom 160 79 4 0 0;
#X floatatom 216 82 4 0 0;
#X floatatom 274 82 4 0 0;
#X floatatom 339 79 4 0 0;
#X floatatom 652 299 4 0 0;
#X floatatom 739 302 4 0 0;
#X floatatom 825 306 4 0 0;
#X floatatom 946 309 4 0 0;
#X floatatom 1031 311 4 0 0;
#X obj 739 422 s osfixedpreset;
#X obj 738 397 pack 0 0 0 0 0;
#X obj 207 274 s preset;
#X obj 208 232 pack 0 0 0 0 0 0 0 0 0 0 0;
#X obj 635 330 f 0;
#X obj 726 328 f 0;
#X obj 814 335 f 0;
#X obj 923 335 f 0;
#X obj 1017 339 f 0;
#X obj 511 306 r \$0-sendsettings;
#X obj 982 189 s \$0-sendsettings;
#X msg 984 157 bang;
#X obj 30 120 f 0;
#X obj 401 113 f 0;
#X obj 462 112 f 0;
#X obj 530 111 f 0;
#X obj 601 112 f 0;
#X obj 420 90 r \$0-sendsettings;
#X obj 675 118 f 0;
#X obj 77 130 f 0;
#X obj 138 129 f 0;
#X obj 206 128 f 0;
#X obj 277 129 f 0;
#X obj 97 104 r \$0-sendsettings;
#X obj 341 131 f 0;
#X obj 965 747 s \$0-sendsettings;
#X text 976 723 on "done": send settings;
#X obj 385 584 r \$0-sendsettings;
#X obj 386 656 s \$0-sendbang;
#X obj 90 233 r \$0-sendbang;
#X obj 630 397 r \$0-sendbang;
#X obj 903 513 del 1;
#X obj 386 622 del 1;
#X obj 676 93 r \$0-sendsettings;
#X floatatom 59 594 4 0 0;
#X obj 59 566 r p-algochoosen;
#X obj 59 622 s algochoosen-in;
#X obj 21 48 r p-mod1;
#X obj 401 39 r p-index2;
#X obj 470 37 r p-index3;
#X obj 542 36 r p-index4;
#X obj 613 36 r p-index5;
#X obj 682 35 r p-index6;
#X obj 102 45 r p-mod2;
#X obj 162 41 r p-mod3;
#X obj 217 40 r p-mod4;
#X obj 275 41 r p-mod5;
#X obj 340 36 r p-mod6;
#X obj 645 265 r p-osc2fixed;
#X obj 738 265 r p-osc3fixed;
#X obj 826 272 r p-osc4fixed;
#X obj 939 275 r p-osc5fixed;
#X obj 1029 274 r p-osc6fixed;
#X connect 2 0 24 0;
#X connect 3 0 2 1;
#X connect 5 0 23 0;
#X connect 6 0 23 0;
#X connect 7 0 13 0;
#X connect 7 1 8 0;
#X connect 9 0 3 0;
#X connect 10 0 7 0;
#X connect 14 0 2 0;
#X connect 14 0 66 0;
#X connect 15 0 48 1;
#X connect 16 0 49 1;
#X connect 17 0 50 1;
#X connect 18 0 51 1;
#X connect 19 0 53 1;
#X connect 20 0 47 1;
#X connect 21 0 23 0;
#X connect 22 0 23 0;
#X connect 23 0 4 0;
#X connect 23 1 60 0;
#X connect 24 0 23 0;
#X connect 25 0 54 1;
#X connect 26 0 55 1;
#X connect 27 0 56 1;
#X connect 28 0 57 1;
#X connect 29 0 59 1;
#X connect 30 0 39 1;
#X connect 31 0 40 1;
#X connect 32 0 41 1;
#X connect 33 0 42 1;
#X connect 34 0 43 1;
#X connect 36 0 35 0;
#X connect 38 0 37 0;
#X connect 39 0 36 0;
#X connect 40 0 36 1;
#X connect 41 0 36 2;
#X connect 42 0 36 3;
#X connect 43 0 36 4;
#X connect 44 0 39 0;
#X connect 44 0 40 0;
#X connect 44 0 41 0;
#X connect 44 0 42 0;
#X connect 44 0 43 0;
#X connect 46 0 45 0;
#X connect 47 0 38 0;
#X connect 48 0 38 6;
#X connect 49 0 38 7;
#X connect 50 0 38 8;
#X connect 51 0 38 9;
#X connect 52 0 48 0;
#X connect 52 0 49 0;
#X connect 52 0 50 0;
#X connect 52 0 51 0;
#X connect 53 0 38 10;
#X connect 54 0 38 1;
#X connect 55 0 38 2;
#X connect 56 0 38 3;
#X connect 57 0 38 4;
#X connect 58 0 54 0;
#X connect 58 0 55 0;
#X connect 58 0 56 0;
#X connect 58 0 57 0;
#X connect 58 0 59 0;
#X connect 58 0 47 0;
#X connect 59 0 38 5;
#X connect 62 0 67 0;
#X connect 64 0 38 0;
#X connect 65 0 36 0;
#X connect 66 0 23 0;
#X connect 67 0 63 0;
#X connect 68 0 53 0;
#X connect 69 0 71 0;
#X connect 70 0 69 0;
#X connect 72 0 20 0;
#X connect 73 0 15 0;
#X connect 74 0 16 0;
#X connect 75 0 17 0;
#X connect 76 0 18 0;
#X connect 77 0 19 0;
#X connect 78 0 25 0;
#X connect 79 0 26 0;
#X connect 80 0 27 0;
#X connect 81 0 28 0;
#X connect 82 0 29 0;
#X connect 83 0 30 0;
#X connect 84 0 31 0;
#X connect 85 0 32 0;
#X connect 86 0 33 0;
#X connect 87 0 34 0;
