#N canvas 102 40 1158 800 10;
#X obj 916 -48 r osc5fixed;
#X obj 795 -47 r osc4fixed;
#X obj 669 -47 r osc3fixed;
#X obj 851 -140 r osc2fixed;
#X obj 235 -239 r index3;
#X obj 353 -239 r index4;
#X obj 456 -240 r index5;
#X obj 135 -237 r index2;
#X obj 174 -80 r mod2;
#X obj 259 -80 r mod3;
#X obj 349 -76 r mod4;
#X obj 434 -76 r mod5;
#X text 136 -286 mod index settings;
#X text 983 -144 fixed oscils;
#X obj 969 211 f 1;
#X msg 959 177 bang;
#X floatatom 1006 175 4 0 0;
#X msg 969 256 write \$1-preset.pdx7;
#X obj 851 424 textfile;
#X obj 851 459 print text;
#X msg 853 357 clear;
#X msg 865 401 print;
#X msg 860 381 rewind;
#X msg 412 -24 add p-mod5 \$1;
#X obj 763 397 r textfilein;
#X msg 329 -25 add p-mod4 \$1;
#X msg 240 -27 add p-mod3 \$1;
#X msg 151 -29 add p-mod2 \$1;
#X obj 226 20 s textfilein;
#X obj 875 -254 t b f;
#X obj 906 -226 s \$0-presetno;
#X obj 1006 142 r \$0-presetno;
#X obj 875 -200 s \$0-clearbang;
#X obj 827 326 r \$0-clearbang;
#X obj 489 -75 r \$0-savebang;
#X obj 935 377 s \$0-savebang;
#X msg 116 -194 add p-index2 \$1;
#X msg 335 -195 add p-index4 \$1;
#X obj 248 -149 s textfilein;
#X obj 615 -233 r \$0-savebang;
#X obj 934 355 del 10;
#X obj 899 139 r \$0-savebang;
#X obj 899 159 del 10;
#X msg 1028 345 bang;
#X msg 217 -194 add p-index3 \$1;
#X msg 436 -193 add p-index5 \$1;
#X obj 15 -218 f 0;
#X obj 118 -215 f 0;
#X obj 218 -216 f 0;
#X obj 337 -216 f 0;
#X obj 436 -216 f 0;
#X obj 544 -213 f 0;
#X obj 65 -53 f 0;
#X obj 157 -55 f 0;
#X obj 240 -53 f 0;
#X obj 331 -49 f 0;
#X obj 421 -49 f 0;
#X obj 875 -289 inlet;
#X obj 901 -21 f 0;
#X msg 901 0 add p-osc5fixed \$1;
#X obj 778 -20 f 0;
#X obj 653 -19 f 0;
#X obj 834 -115 f 0;
#X obj 713 -113 f 0;
#X obj 783 -67 s textfilein;
#X obj 776 39 s textfilein;
#X obj 630 -140 r \$0-savebang;
#X obj 1012 -47 r \$0-savebang;
#N canvas 0 0 1242 875 savealgos 0;
#X obj 495 82 f 0;
#X obj 449 106 f 0;
#X obj 387 131 f 0;
#X obj 262 122 f 0;
#X obj 209 143 f 0;
#X obj 130 170 f 0;
#X obj 34 122 f 0;
#X obj 396 80 r \$0-savebang;
#X obj 94 104 r \$0-savebang;
#X obj 376 191 s textfilein;
#X obj 240 195 s textfilein;
#X obj 33 188 s textfilein;
#X obj 456 465 f 0;
#X obj 410 489 f 0;
#X obj 348 514 f 0;
#X obj 254 467 f 0;
#X obj 203 470 f 0;
#X obj 100 465 f 0;
#X obj 6 467 f 0;
#X obj 357 463 r \$0-savebang;
#X obj 192 409 r \$0-savebang;
#X obj 337 574 s textfilein;
#X obj 216 559 s textfilein;
#X obj 7 519 s textfilein;
#X obj 19 437 r osc2-1;
#X obj 111 437 r osc2-2;
#X obj 189 438 r osc2-3;
#X obj 265 438 r osc2-4;
#X obj 339 439 r osc2-5;
#X obj 404 439 r osc2-6;
#X obj 470 439 r osc2out;
#X msg 456 490 add p-osc2out \$1;
#X msg 410 514 add p-osc2-6 \$1;
#X msg 347 539 add p-osc2-5 \$1;
#X msg 254 516 add p-osc2-4 \$1;
#X obj 446 670 f 0;
#X obj 400 694 f 0;
#X obj 338 719 f 0;
#X obj 244 672 f 0;
#X obj 191 693 f 0;
#X obj 112 720 f 0;
#X obj 16 672 f 0;
#X obj 347 668 r \$0-savebang;
#X obj 182 614 r \$0-savebang;
#X obj 327 779 s textfilein;
#X obj 222 745 s textfilein;
#X obj 15 738 s textfilein;
#X obj 29 642 r osc3-1;
#X obj 101 642 r osc3-2;
#X obj 179 643 r osc3-3;
#X obj 329 644 r osc3-5;
#X obj 394 644 r osc3-6;
#X obj 460 644 r osc3out;
#X msg 445 695 add p-osc3out \$1;
#X msg 401 719 add p-osc3-6 \$1;
#X msg 337 744 add p-osc3-5 \$1;
#X obj 898 64 f 0;
#X obj 852 128 s textfilein;
#X obj 796 57 f 0;
#X obj 685 20 r \$0-savebang;
#X obj 1042 222 f 0;
#X obj 996 246 f 0;
#X obj 934 271 f 0;
#X obj 840 224 f 0;
#X obj 787 245 f 0;
#X obj 708 272 f 0;
#X obj 612 224 f 0;
#X obj 943 220 r \$0-savebang;
#X obj 707 146 r \$0-savebang;
#X obj 923 331 s textfilein;
#X obj 818 297 s textfilein;
#X obj 611 290 s textfilein;
#X obj 1059 448 f 0;
#X obj 1013 472 f 0;
#X obj 951 497 f 0;
#X obj 857 450 f 0;
#X obj 804 471 f 0;
#X obj 725 498 f 0;
#X obj 629 450 f 0;
#X obj 960 446 r \$0-savebang;
#X obj 795 392 r \$0-savebang;
#X obj 940 557 s textfilein;
#X obj 791 577 s textfilein;
#X obj 628 516 s textfilein;
#X obj 625 194 r osc4-1;
#X obj 697 194 r osc4-2;
#X obj 775 195 r osc4-3;
#X obj 851 195 r osc4-4;
#X obj 925 196 r osc4-5;
#X obj 990 196 r osc4-6;
#X obj 1056 196 r osc4out;
#X msg 1041 247 add p-osc4out \$1;
#X msg 998 271 add p-osc4-6 \$1;
#X msg 933 296 add p-osc4-5 \$1;
#X msg 840 249 add p-osc4-4 \$1;
#X obj 255 643 r osc3-4;
#X obj 642 420 r osc5-1;
#X obj 714 420 r osc5-2;
#X obj 792 421 r osc5-3;
#X obj 868 421 r osc5-4;
#X obj 942 422 r osc5-5;
#X obj 1007 422 r osc5-6;
#X obj 1073 422 r osc5out;
#X msg 1058 473 add p-osc5out \$1;
#X msg 1014 497 add p-osc5-6 \$1;
#X msg 950 522 add p-osc5-5 \$1;
#X msg 857 475 add p-osc5-4 \$1;
#X floatatom 48 84 4 0 0;
#X floatatom 119 81 4 0 0;
#X floatatom 195 81 4 0 0;
#X floatatom 269 80 4 0 0;
#X msg 6 492 add p-osc2-1 \$1;
#X msg 15 697 add p-osc3-1 \$1;
#X msg 112 745 add p-osc3-2 \$1;
#X msg 191 718 add p-osc3-3 \$1;
#X msg 244 697 add p-osc3-4 \$1;
#X msg 610 249 add p-osc4-1 \$1;
#X msg 708 297 add p-osc4-2 \$1;
#X msg 787 270 add p-osc4-3 \$1;
#X msg 628 475 add p-osc5-1 \$1;
#X msg 725 523 add p-osc5-2 \$1;
#X msg 803 496 add p-osc5-3 \$1;
#X msg 107 493 add p-osc2-2 \$1;
#X msg 203 495 add p-osc2-3 \$1;
#X obj 106 524 s textfilein;
#X obj 815 32 r osc1-1;
#X obj 912 32 r osc1out;
#X msg 793 79 add p-osc1-1 \$1;
#X msg 900 91 add p-osc1out \$1;
#X obj 44 55 r osc6-1;
#X obj 116 55 r osc6-2;
#X obj 194 56 r osc6-3;
#X obj 270 56 r osc6-4;
#X obj 378 56 r osc6-5;
#X obj 443 56 r osc6-6;
#X obj 509 56 r osc6out;
#X msg 495 107 add p-osc6out \$1;
#X msg 449 131 add p-osc6-6 \$1;
#X msg 387 156 add p-osc6-5 \$1;
#X msg 262 147 add p-osc6-4 \$1;
#X msg 209 168 add p-osc6-3 \$1;
#X msg 33 147 add p-osc6-1 \$1;
#X msg 130 195 add p-osc6-2 \$1;
#X connect 0 0 136 0;
#X connect 1 0 137 0;
#X connect 2 0 138 0;
#X connect 3 0 139 0;
#X connect 4 0 140 0;
#X connect 5 0 142 0;
#X connect 6 0 141 0;
#X connect 7 0 0 0;
#X connect 7 0 1 0;
#X connect 7 0 2 0;
#X connect 8 0 3 0;
#X connect 8 0 4 0;
#X connect 8 0 5 0;
#X connect 8 0 6 0;
#X connect 12 0 31 0;
#X connect 13 0 32 0;
#X connect 14 0 33 0;
#X connect 15 0 34 0;
#X connect 16 0 123 0;
#X connect 17 0 122 0;
#X connect 18 0 111 0;
#X connect 19 0 12 0;
#X connect 19 0 13 0;
#X connect 19 0 14 0;
#X connect 20 0 15 0;
#X connect 20 0 16 0;
#X connect 20 0 17 0;
#X connect 20 0 18 0;
#X connect 24 0 18 1;
#X connect 25 0 17 1;
#X connect 26 0 16 1;
#X connect 27 0 15 1;
#X connect 28 0 14 1;
#X connect 29 0 13 1;
#X connect 30 0 12 1;
#X connect 31 0 21 0;
#X connect 32 0 21 0;
#X connect 33 0 21 0;
#X connect 34 0 22 0;
#X connect 35 0 53 0;
#X connect 36 0 54 0;
#X connect 37 0 55 0;
#X connect 38 0 115 0;
#X connect 39 0 114 0;
#X connect 40 0 113 0;
#X connect 41 0 112 0;
#X connect 42 0 35 0;
#X connect 42 0 36 0;
#X connect 42 0 37 0;
#X connect 43 0 38 0;
#X connect 43 0 39 0;
#X connect 43 0 40 0;
#X connect 43 0 41 0;
#X connect 47 0 41 1;
#X connect 48 0 40 1;
#X connect 49 0 39 1;
#X connect 50 0 37 1;
#X connect 51 0 36 1;
#X connect 52 0 35 1;
#X connect 53 0 44 0;
#X connect 54 0 44 0;
#X connect 55 0 44 0;
#X connect 56 0 128 0;
#X connect 58 0 127 0;
#X connect 59 0 58 0;
#X connect 59 0 56 0;
#X connect 60 0 91 0;
#X connect 61 0 92 0;
#X connect 62 0 93 0;
#X connect 63 0 94 0;
#X connect 64 0 118 0;
#X connect 65 0 117 0;
#X connect 66 0 116 0;
#X connect 67 0 60 0;
#X connect 67 0 61 0;
#X connect 67 0 62 0;
#X connect 68 0 63 0;
#X connect 68 0 64 0;
#X connect 68 0 65 0;
#X connect 68 0 66 0;
#X connect 72 0 103 0;
#X connect 73 0 104 0;
#X connect 74 0 105 0;
#X connect 75 0 106 0;
#X connect 76 0 121 0;
#X connect 77 0 120 0;
#X connect 78 0 119 0;
#X connect 79 0 72 0;
#X connect 79 0 73 0;
#X connect 79 0 74 0;
#X connect 80 0 75 0;
#X connect 80 0 76 0;
#X connect 80 0 77 0;
#X connect 80 0 78 0;
#X connect 84 0 66 1;
#X connect 85 0 65 1;
#X connect 86 0 64 1;
#X connect 87 0 63 1;
#X connect 88 0 62 1;
#X connect 89 0 61 1;
#X connect 90 0 60 1;
#X connect 91 0 69 0;
#X connect 92 0 69 0;
#X connect 93 0 69 0;
#X connect 94 0 70 0;
#X connect 95 0 38 1;
#X connect 96 0 78 1;
#X connect 97 0 77 1;
#X connect 98 0 76 1;
#X connect 99 0 75 1;
#X connect 100 0 74 1;
#X connect 101 0 73 1;
#X connect 102 0 72 1;
#X connect 103 0 81 0;
#X connect 104 0 81 0;
#X connect 105 0 81 0;
#X connect 106 0 82 0;
#X connect 107 0 6 1;
#X connect 108 0 5 1;
#X connect 109 0 4 1;
#X connect 110 0 3 1;
#X connect 111 0 23 0;
#X connect 112 0 46 0;
#X connect 113 0 45 0;
#X connect 114 0 45 0;
#X connect 115 0 45 0;
#X connect 116 0 71 0;
#X connect 117 0 70 0;
#X connect 118 0 70 0;
#X connect 119 0 83 0;
#X connect 120 0 82 0;
#X connect 121 0 82 0;
#X connect 122 0 124 0;
#X connect 123 0 22 0;
#X connect 125 0 58 1;
#X connect 126 0 56 1;
#X connect 127 0 57 0;
#X connect 128 0 57 0;
#X connect 129 0 107 0;
#X connect 130 0 108 0;
#X connect 131 0 109 0;
#X connect 132 0 110 0;
#X connect 133 0 2 1;
#X connect 134 0 1 1;
#X connect 135 0 0 1;
#X connect 136 0 9 0;
#X connect 137 0 9 0;
#X connect 138 0 9 0;
#X connect 139 0 10 0;
#X connect 140 0 10 0;
#X connect 141 0 11 0;
#X connect 142 0 10 0;
#X restore 187 235 pd savealgos;
#N canvas 0 0 992 836 saveenvs 0;
#X obj 130 21 r ampenv;
#X obj 27 22 r \$0-savebang;
#X obj 130 119 s textfilein;
#X msg 130 60 set add p-ampenv \$1 \$2 \$3 \$4 \$5 \$6 \$7 \$8 \$9
;
#X msg 130 88 add p-ampenv 100 100 80 50 60 10 0 10 0;
#X obj 24 147 r \$0-savebang;
#X obj 127 244 s textfilein;
#X obj 26 276 r \$0-savebang;
#X obj 129 373 s textfilein;
#X msg 129 342 add p-index-op2 100 100 80 50 60 10 0 99 1;
#X obj 129 275 r index-op2;
#X msg 129 314 set add p-index-op2 \$1 \$2 \$3 \$4 \$5 \$6 \$7 \$8
\$9;
#X obj 28 410 r \$0-savebang;
#X obj 131 507 s textfilein;
#X msg 131 476 add p-index-op3 100 100 80 50 60 10 0 99 1;
#X obj 131 409 r index-op3;
#X msg 131 448 set add p-index-op3 \$1 \$2 \$3 \$4 \$5 \$6 \$7 \$8
\$9;
#X obj 30 536 r \$0-savebang;
#X obj 133 633 s textfilein;
#X msg 133 602 add p-index-op4 100 100 80 50 60 10 0 99 1;
#X obj 133 535 r index-op4;
#X msg 133 574 set add p-index-op4 \$1 \$2 \$3 \$4 \$5 \$6 \$7 \$8
\$9;
#X obj 36 663 r \$0-savebang;
#X obj 139 760 s textfilein;
#X msg 139 729 add p-index-op5 100 100 80 50 60 10 0 99 1;
#X obj 138 662 r index-op5;
#X msg 139 701 set add p-index-op5 \$1 \$2 \$3 \$4 \$5 \$6 \$7 \$8
\$9;
#X obj 508 23 r \$0-savebang;
#X obj 611 120 s textfilein;
#X obj 510 152 r \$0-savebang;
#X obj 613 249 s textfilein;
#X msg 613 218 add p-mod-op2 100 100 100 100 100 100 100 100 1;
#X obj 512 286 r \$0-savebang;
#X obj 615 383 s textfilein;
#X msg 615 352 add p-mod-op3 100 100 100 100 100 100 100 100 1;
#X obj 514 412 r \$0-savebang;
#X obj 617 509 s textfilein;
#X msg 617 478 add p-mod-op4 100 100 100 100 100 100 100 100 1;
#X obj 520 539 r \$0-savebang;
#X obj 623 636 s textfilein;
#X msg 623 605 add p-mod-op5 100 100 100 100 100 100 100 100 1;
#X obj 613 151 r mod-op2;
#X msg 613 190 set add p-mod-op2 \$1 \$2 \$3 \$4 \$5 \$6 \$7 \$8 \$9
;
#X obj 615 285 r mod-op3;
#X msg 615 324 set add p-mod-op3 \$1 \$2 \$3 \$4 \$5 \$6 \$7 \$8 \$9
;
#X obj 617 411 r mod-op4;
#X msg 617 450 set add p-mod-op4 \$1 \$2 \$3 \$4 \$5 \$6 \$7 \$8 \$9
;
#X obj 622 538 r mod-op5;
#X msg 623 577 set add p-mod-op5 \$1 \$2 \$3 \$4 \$5 \$6 \$7 \$8 \$9
;
#X obj 127 146 r index-op6;
#X obj 611 22 r mod-op6;
#X msg 611 61 set add p-mod-op6 \$1 \$2 \$3 \$4 \$5 \$6 \$7 \$8 \$9
;
#X msg 611 89 add p-mod-op6 100 100 100 100 100 100 100 100 1;
#X msg 127 185 set add p-index-op6 \$1 \$2 \$3 \$4 \$5 \$6 \$7 \$8
\$9;
#X msg 127 213 add p-index-op6 100 100 80 50 60 10 0 99 1;
#X connect 0 0 3 0;
#X connect 1 0 4 0;
#X connect 3 0 4 0;
#X connect 4 0 2 0;
#X connect 5 0 54 0;
#X connect 7 0 9 0;
#X connect 9 0 8 0;
#X connect 10 0 11 0;
#X connect 11 0 9 0;
#X connect 12 0 14 0;
#X connect 14 0 13 0;
#X connect 15 0 16 0;
#X connect 16 0 14 0;
#X connect 17 0 19 0;
#X connect 19 0 18 0;
#X connect 20 0 21 0;
#X connect 21 0 19 0;
#X connect 22 0 24 0;
#X connect 24 0 23 0;
#X connect 25 0 26 0;
#X connect 26 0 24 0;
#X connect 27 0 52 0;
#X connect 29 0 31 0;
#X connect 31 0 30 0;
#X connect 32 0 34 0;
#X connect 34 0 33 0;
#X connect 35 0 37 0;
#X connect 37 0 36 0;
#X connect 38 0 40 0;
#X connect 40 0 39 0;
#X connect 41 0 42 0;
#X connect 42 0 31 0;
#X connect 43 0 44 0;
#X connect 44 0 34 0;
#X connect 45 0 46 0;
#X connect 46 0 37 0;
#X connect 47 0 48 0;
#X connect 48 0 40 0;
#X connect 49 0 53 0;
#X connect 50 0 51 0;
#X connect 51 0 52 0;
#X connect 52 0 28 0;
#X connect 53 0 54 0;
#X connect 54 0 6 0;
#X restore 188 268 pd saveenvs;
#X msg 834 -93 add p-osc2fixed \$1;
#X msg 653 2 add p-osc3fixed \$1;
#X msg 778 1 add p-osc4fixed \$1;
#X obj 403 81 r \$0-savebang;
#X obj 419 109 f 0;
#X obj 458 109 r algochoosen;
#X msg 410 134 add p-algochoosen \$1;
#X obj 410 162 s textfilein;
#X obj 560 -239 r mod1;
#X msg 544 -192 add p-mod1 \$1;
#X msg 13 -195 add p-index6 \$1;
#X obj 40 -242 r index6;
#X obj 85 -79 r mod6;
#X msg 65 -30 add p-mod6 \$1;
#X obj 731 -139 r osc6fixed;
#X msg 713 -92 add p-osc6fixed \$1;
#X connect 0 0 58 1;
#X connect 1 0 60 1;
#X connect 2 0 61 1;
#X connect 3 0 62 1;
#X connect 4 0 48 1;
#X connect 5 0 49 1;
#X connect 6 0 50 1;
#X connect 7 0 47 1;
#X connect 8 0 53 1;
#X connect 9 0 54 1;
#X connect 10 0 55 1;
#X connect 11 0 56 1;
#X connect 14 0 17 0;
#X connect 15 0 14 0;
#X connect 16 0 14 1;
#X connect 17 0 18 0;
#X connect 18 0 19 0;
#X connect 20 0 18 0;
#X connect 21 0 18 0;
#X connect 22 0 18 0;
#X connect 23 0 28 0;
#X connect 24 0 18 0;
#X connect 25 0 28 0;
#X connect 26 0 28 0;
#X connect 27 0 28 0;
#X connect 29 0 32 0;
#X connect 29 1 30 0;
#X connect 31 0 16 0;
#X connect 33 0 20 0;
#X connect 33 0 40 0;
#X connect 34 0 56 0;
#X connect 34 0 55 0;
#X connect 34 0 54 0;
#X connect 34 0 53 0;
#X connect 34 0 52 0;
#X connect 36 0 38 0;
#X connect 37 0 38 0;
#X connect 39 0 49 0;
#X connect 39 0 50 0;
#X connect 39 0 51 0;
#X connect 39 0 48 0;
#X connect 39 0 47 0;
#X connect 39 0 46 0;
#X connect 40 0 35 0;
#X connect 41 0 42 0;
#X connect 42 0 15 0;
#X connect 43 0 35 0;
#X connect 44 0 38 0;
#X connect 45 0 38 0;
#X connect 46 0 80 0;
#X connect 47 0 36 0;
#X connect 48 0 44 0;
#X connect 49 0 37 0;
#X connect 50 0 45 0;
#X connect 51 0 79 0;
#X connect 52 0 83 0;
#X connect 53 0 27 0;
#X connect 54 0 26 0;
#X connect 55 0 25 0;
#X connect 56 0 23 0;
#X connect 57 0 29 0;
#X connect 58 0 59 0;
#X connect 59 0 65 0;
#X connect 60 0 72 0;
#X connect 61 0 71 0;
#X connect 62 0 70 0;
#X connect 63 0 85 0;
#X connect 66 0 63 0;
#X connect 66 0 62 0;
#X connect 67 0 58 0;
#X connect 67 0 60 0;
#X connect 67 0 61 0;
#X connect 70 0 64 0;
#X connect 71 0 65 0;
#X connect 72 0 65 0;
#X connect 73 0 74 0;
#X connect 74 0 76 0;
#X connect 75 0 74 1;
#X connect 76 0 77 0;
#X connect 78 0 51 1;
#X connect 79 0 38 0;
#X connect 80 0 38 0;
#X connect 81 0 46 1;
#X connect 82 0 52 1;
#X connect 83 0 28 0;
#X connect 84 0 63 1;
#X connect 85 0 64 0;
