#N canvas 309 82 713 309 10;
#X obj 245 8 env4seg;
#X msg 161 -34 1;
#X msg 199 -34 0;
#X floatatom 132 52 4 0 0;
#X msg 257 -62 bang;
#X obj 222 44 sel 0;
#X msg 277 44 stop;
#X obj 133 25 snapshot~;
#X msg 102 -89 stop;
#X msg 67 -90 bang;
#X obj 63 -67 metro 100;
#X obj 250 -129 r showenvelopes;
#X obj 426 29 *~ 100;
#X msg 400 -42 \; mod-op1 const 0;
#X obj 400 -9 r mod-op1;
#X obj 425 50 tabwrite~ mod-op1;
#X connect 0 0 7 0;
#X connect 0 0 12 0;
#X connect 1 0 0 0;
#X connect 2 0 0 0;
#X connect 4 0 1 0;
#X connect 4 0 13 0;
#X connect 4 0 15 0;
#X connect 5 0 6 0;
#X connect 6 0 15 0;
#X connect 7 0 3 0;
#X connect 7 0 5 0;
#X connect 8 0 10 0;
#X connect 9 0 10 0;
#X connect 10 0 7 0;
#X connect 11 0 4 0;
#X connect 12 0 15 0;
#X connect 14 0 0 1;
