#N canvas 0 0 730 349 10;
#X obj 231 5 env4seg;
#X msg 147 -37 1;
#X msg 185 -37 0;
#X floatatom 118 49 4 0 0;
#X msg 243 -65 bang;
#X obj 208 41 sel 0;
#X msg 263 41 stop;
#X obj 119 22 snapshot~;
#X msg 88 -92 stop;
#X msg 53 -93 bang;
#X obj 49 -70 metro 100;
#X obj 236 -132 r showenvelopes;
#X obj 412 26 *~ 100;
#X obj 411 47 tabwrite~ index-op2;
#X msg 386 -45 \; index-op2 const 0;
#X obj 386 -12 r index-op2;
#X connect 0 0 7 0;
#X connect 0 0 12 0;
#X connect 1 0 0 0;
#X connect 2 0 0 0;
#X connect 4 0 1 0;
#X connect 4 0 14 0;
#X connect 4 0 13 0;
#X connect 5 0 6 0;
#X connect 6 0 13 0;
#X connect 7 0 3 0;
#X connect 7 0 5 0;
#X connect 8 0 10 0;
#X connect 9 0 10 0;
#X connect 10 0 7 0;
#X connect 11 0 4 0;
#X connect 12 0 13 0;
#X connect 15 0 0 1;
