#N canvas 77 9 1182 807 10;
#X msg 758 243 6;
#X floatatom 2 594 3 0 128;
#X floatatom 37 595 3 0 128;
#X floatatom 67 596 3 0 128;
#X floatatom 96 596 3 0 128;
#X obj -70 481 del;
#X obj -40 481 del;
#X obj -11 482 del;
#X floatatom 758 325 4 0 0;
#X msg -118 459 bang;
#X obj 19 483 del;
#X obj 758 205 loadbang;
#X msg 880 245 4;
#X floatatom 880 327 4 0 0;
#X obj 880 205 loadbang;
#X floatatom 330 614 3 0 128;
#X floatatom 358 613 3 0 128;
#X floatatom 388 614 3 0 128;
#X floatatom 417 614 3 0 128;
#X obj 187 492 del;
#X obj 217 492 del;
#X obj 246 493 del;
#X msg 114 474 bang;
#X obj 276 494 del;
#X floatatom 18 621 1 0 1;
#X floatatom 51 623 1 0 1;
#X floatatom 82 622 1 0 1;
#X floatatom 112 623 1 0 1;
#X floatatom 347 637 1 0 1;
#X floatatom 373 637 1 0 1;
#X floatatom 405 638 1 0 1;
#X floatatom 436 639 1 0 1;
#X floatatom 880 274 4 0 0;
#X floatatom 758 275 4 0 0;
#X floatatom 825 251 4 0 0;
#X obj 825 274 t b f;
#X obj 7 558 unpack 0 0 0 0 0 0 0 0;
#X obj 330 576 unpack 0 0 0 0 0 0 0 0;
#X obj 937 23 loadbang;
#X obj -257 427 inlet;
#X obj 216 719 outlet;
#X text -243 83 note value:;
#X text -216 102 on/off:;
#X text -219 -1 8-step sequencer;
#X obj -122 612 f;
#X obj -94 613 f;
#X obj -62 614 f;
#X obj -33 614 f;
#X obj -10 670 4spigots;
#X obj 206 629 f;
#X obj 234 630 f;
#X obj 266 631 f;
#X obj 295 631 f;
#X obj 284 676 4spigots;
#X obj -218 523 spigot;
#X obj -211 451 loadbang;
#X msg -211 477 1;
#X msg -152 498 0;
#X obj 288 717 r \$0-lastnote;
#X obj -25 431 r \$0-ticksodd;
#X obj 5 450 r \$0-tickseven;
#X obj 236 442 r \$0-ticksodd;
#X obj 266 461 r \$0-tickseven;
#X obj 757 349 s \$0-ticksodd;
#X obj 879 351 s \$0-tickseven;
#X floatatom 93 79 3 0 128;
#X floatatom 138 82 3 0 128;
#X floatatom 178 80 3 0 128;
#X floatatom 223 82 3 0 128;
#X floatatom 124 110 1 0 1;
#X floatatom 166 109 1 0 1;
#X floatatom 209 107 1 0 1;
#X floatatom 253 108 1 0 1;
#X obj 103 41 unpack 0 0 0 0 0 0 0 0;
#X obj 90 258 pack 0 0 0 0 0 0 0 0;
#X obj 90 282 s \$0-pat-2;
#X obj 8 533 r \$0-pat-1;
#X obj 330 554 r \$0-pat-2;
#X obj 103 19 r \$0-pat-2-in;
#X obj 937 127 s \$0-pat-2-in;
#X obj 937 79 s \$0-pat-1-in;
#X text -221 63 EDIT;
#X obj 93 198 t b f;
#X obj 112 220 t b f;
#X obj 138 197 t b f;
#X obj 154 218 t b f;
#X obj 179 197 t b f;
#X obj 199 219 t b f;
#X obj 223 197 t b f;
#X obj 243 221 t b f;
#X floatatom -126 79 3 0 128;
#X floatatom -81 82 3 0 128;
#X floatatom -41 80 3 0 128;
#X floatatom 4 82 3 0 128;
#X floatatom -95 110 1 0 1;
#X floatatom -53 109 1 0 1;
#X floatatom -10 107 1 0 1;
#X floatatom 34 108 1 0 1;
#X obj -116 41 unpack 0 0 0 0 0 0 0 0;
#X obj -129 258 pack 0 0 0 0 0 0 0 0;
#X obj -126 198 t b f;
#X obj -107 220 t b f;
#X obj -81 197 t b f;
#X obj -65 218 t b f;
#X obj -40 197 t b f;
#X obj -20 219 t b f;
#X obj 4 197 t b f;
#X obj 24 221 t b f;
#X obj -115 19 r \$0-pat-1-in;
#X obj -129 282 s \$0-pat-1;
#X text -247 549 only one bang in;
#X text -244 390 -----------------------------------------------------------
;
#X text 182 389 -----------------------------------------------------------
;
#X text 606 389 -----------------------------------------;
#X text -71 380 Ignore this ugly stuff below the line.;
#X text 823 207 Tempo;
#X obj 880 304 * 40;
#X obj 758 301 * 40;
#X msg 944 57 24 1 27 1 24 1 28 1;
#X msg 936 105 25 1 30 1 32 1 15 1;
#X msg 825 231 30;
#X obj 288 748 outlet;
#X floatatom 592 601 3 0 128;
#X floatatom 620 600 3 0 128;
#X floatatom 650 601 3 0 128;
#X floatatom 679 601 3 0 128;
#X obj 458 481 del;
#X obj 488 481 del;
#X obj 517 482 del;
#X msg 441 453 bang;
#X obj 547 483 del;
#X floatatom 609 624 1 0 1;
#X floatatom 635 624 1 0 1;
#X floatatom 667 625 1 0 1;
#X floatatom 696 624 1 0 1;
#X obj 592 563 unpack 0 0 0 0 0 0 0 0;
#X obj 477 618 f;
#X obj 505 619 f;
#X obj 537 620 f;
#X obj 566 620 f;
#X obj 555 665 4spigots;
#X obj 507 431 r \$0-ticksodd;
#X obj 537 450 r \$0-tickseven;
#X obj 592 541 r \$0-pat-3;
#X floatatom 892 601 3 0 128;
#X floatatom 920 600 3 0 128;
#X floatatom 950 601 3 0 128;
#X floatatom 979 601 3 0 128;
#X obj 761 482 del;
#X obj 791 482 del;
#X obj 820 483 del;
#X msg 724 465 bang;
#X obj 850 484 del;
#X floatatom 909 624 1 0 1;
#X floatatom 935 624 1 0 1;
#X floatatom 967 625 1 0 1;
#X floatatom 996 624 1 0 1;
#X obj 892 563 unpack 0 0 0 0 0 0 0 0;
#X obj 780 619 f;
#X obj 808 620 f;
#X obj 840 621 f;
#X obj 869 621 f;
#X obj 858 666 4spigots;
#X obj 880 484 s \$0-lastnote;
#X obj 810 432 r \$0-ticksodd;
#X obj 840 451 r \$0-tickseven;
#X obj 892 541 r \$0-pat-4;
#X floatatom 299 80 3 0 128;
#X floatatom 344 83 3 0 128;
#X floatatom 384 81 3 0 128;
#X floatatom 429 83 3 0 128;
#X floatatom 330 111 1 0 1;
#X floatatom 372 110 1 0 1;
#X floatatom 415 108 1 0 1;
#X floatatom 459 109 1 0 1;
#X obj 309 42 unpack 0 0 0 0 0 0 0 0;
#X obj 296 259 pack 0 0 0 0 0 0 0 0;
#X obj 299 199 t b f;
#X obj 318 221 t b f;
#X obj 344 198 t b f;
#X obj 360 219 t b f;
#X obj 385 198 t b f;
#X obj 405 220 t b f;
#X obj 429 198 t b f;
#X obj 449 222 t b f;
#X floatatom 502 80 3 0 128;
#X floatatom 547 83 3 0 128;
#X floatatom 587 81 3 0 128;
#X floatatom 632 83 3 0 128;
#X floatatom 533 111 1 0 1;
#X floatatom 575 110 1 0 1;
#X floatatom 618 108 1 0 1;
#X floatatom 662 109 1 0 1;
#X obj 512 42 unpack 0 0 0 0 0 0 0 0;
#X obj 499 259 pack 0 0 0 0 0 0 0 0;
#X obj 502 199 t b f;
#X obj 521 221 t b f;
#X obj 547 198 t b f;
#X obj 563 219 t b f;
#X obj 588 198 t b f;
#X obj 608 220 t b f;
#X obj 632 198 t b f;
#X obj 652 222 t b f;
#X obj 296 283 s \$0-pat-3;
#X obj 499 283 s \$0-pat-4;
#X obj 512 20 r \$0-pat-4-in;
#X obj 309 20 r \$0-pat-3-in;
#X obj 970 170 loadbang;
#X obj 971 226 s \$0-pat-3-in;
#X obj 971 274 s \$0-pat-4-in;
#X msg 969 252 22 1 32 1 28 1 15 1;
#X msg 976 204 24 1 37 1 44 1 28 1;
#X text 712 63 EDIT;
#X text 689 83 note value;
#X text 717 102 on/off;
#X text 824 396 -----------------------------------------;
#X connect 0 0 33 0;
#X connect 1 0 44 1;
#X connect 2 0 45 1;
#X connect 3 0 46 1;
#X connect 4 0 47 1;
#X connect 5 0 6 0;
#X connect 5 0 45 0;
#X connect 6 0 7 0;
#X connect 6 0 46 0;
#X connect 7 0 10 0;
#X connect 7 0 47 0;
#X connect 8 0 63 0;
#X connect 9 0 5 0;
#X connect 9 0 44 0;
#X connect 9 0 57 0;
#X connect 10 0 22 0;
#X connect 11 0 0 0;
#X connect 11 0 120 0;
#X connect 12 0 32 0;
#X connect 13 0 64 0;
#X connect 14 0 12 0;
#X connect 15 0 49 1;
#X connect 16 0 50 1;
#X connect 17 0 51 1;
#X connect 18 0 52 1;
#X connect 19 0 20 0;
#X connect 19 0 50 0;
#X connect 20 0 21 0;
#X connect 20 0 51 0;
#X connect 21 0 23 0;
#X connect 21 0 52 0;
#X connect 22 0 19 0;
#X connect 22 0 49 0;
#X connect 23 0 129 0;
#X connect 24 0 48 1;
#X connect 25 0 48 3;
#X connect 26 0 48 5;
#X connect 27 0 48 7;
#X connect 28 0 53 1;
#X connect 29 0 53 3;
#X connect 30 0 53 5;
#X connect 31 0 53 7;
#X connect 32 0 116 0;
#X connect 33 0 117 0;
#X connect 34 0 35 0;
#X connect 35 0 116 0;
#X connect 35 0 117 0;
#X connect 35 1 116 1;
#X connect 35 1 117 1;
#X connect 36 0 1 0;
#X connect 36 1 24 0;
#X connect 36 2 3 0;
#X connect 36 2 2 0;
#X connect 36 3 25 0;
#X connect 36 4 3 0;
#X connect 36 5 26 0;
#X connect 36 6 4 0;
#X connect 36 7 27 0;
#X connect 37 0 15 0;
#X connect 37 1 28 0;
#X connect 37 2 16 0;
#X connect 37 3 29 0;
#X connect 37 4 17 0;
#X connect 37 5 30 0;
#X connect 37 6 18 0;
#X connect 37 7 31 0;
#X connect 38 0 118 0;
#X connect 38 0 119 0;
#X connect 39 0 9 0;
#X connect 44 0 48 0;
#X connect 45 0 48 2;
#X connect 46 0 48 4;
#X connect 47 0 48 6;
#X connect 48 0 40 0;
#X connect 49 0 53 0;
#X connect 50 0 53 2;
#X connect 51 0 53 4;
#X connect 52 0 53 6;
#X connect 53 0 40 0;
#X connect 55 0 56 0;
#X connect 56 0 54 1;
#X connect 57 0 54 1;
#X connect 58 0 121 0;
#X connect 59 0 7 1;
#X connect 59 0 5 1;
#X connect 60 0 6 1;
#X connect 60 0 10 1;
#X connect 61 0 21 1;
#X connect 61 0 19 1;
#X connect 62 0 20 1;
#X connect 62 0 23 1;
#X connect 65 0 82 0;
#X connect 66 0 84 0;
#X connect 67 0 86 0;
#X connect 68 0 88 0;
#X connect 69 0 83 0;
#X connect 70 0 85 0;
#X connect 71 0 87 0;
#X connect 72 0 89 0;
#X connect 73 0 65 0;
#X connect 73 1 69 0;
#X connect 73 2 66 0;
#X connect 73 3 70 0;
#X connect 73 4 67 0;
#X connect 73 5 71 0;
#X connect 73 6 68 0;
#X connect 73 7 72 0;
#X connect 74 0 75 0;
#X connect 76 0 36 0;
#X connect 77 0 37 0;
#X connect 78 0 73 0;
#X connect 82 0 74 0;
#X connect 82 1 74 0;
#X connect 83 0 74 0;
#X connect 83 1 74 1;
#X connect 84 0 74 0;
#X connect 84 1 74 2;
#X connect 85 0 74 0;
#X connect 85 1 74 3;
#X connect 86 0 74 0;
#X connect 86 1 74 4;
#X connect 87 0 74 0;
#X connect 87 1 74 5;
#X connect 88 0 74 0;
#X connect 88 1 74 6;
#X connect 89 0 74 0;
#X connect 89 1 74 7;
#X connect 90 0 100 0;
#X connect 91 0 102 0;
#X connect 92 0 104 0;
#X connect 93 0 106 0;
#X connect 94 0 101 0;
#X connect 95 0 103 0;
#X connect 96 0 105 0;
#X connect 97 0 107 0;
#X connect 98 0 90 0;
#X connect 98 1 94 0;
#X connect 98 2 91 0;
#X connect 98 3 95 0;
#X connect 98 4 92 0;
#X connect 98 5 96 0;
#X connect 98 6 93 0;
#X connect 98 7 97 0;
#X connect 99 0 109 0;
#X connect 100 0 99 0;
#X connect 100 1 99 0;
#X connect 101 0 99 0;
#X connect 101 1 99 1;
#X connect 102 0 99 0;
#X connect 102 1 99 2;
#X connect 103 0 99 0;
#X connect 103 1 99 3;
#X connect 104 0 99 0;
#X connect 104 1 99 4;
#X connect 105 0 99 0;
#X connect 105 1 99 5;
#X connect 106 0 99 0;
#X connect 106 1 99 6;
#X connect 107 0 99 0;
#X connect 107 1 99 7;
#X connect 108 0 98 0;
#X connect 116 0 13 0;
#X connect 117 0 8 0;
#X connect 118 0 80 0;
#X connect 119 0 79 0;
#X connect 120 0 34 0;
#X connect 122 0 136 1;
#X connect 123 0 137 1;
#X connect 124 0 138 1;
#X connect 125 0 139 1;
#X connect 126 0 127 0;
#X connect 126 0 137 0;
#X connect 127 0 128 0;
#X connect 127 0 138 0;
#X connect 128 0 130 0;
#X connect 128 0 139 0;
#X connect 129 0 126 0;
#X connect 129 0 136 0;
#X connect 130 0 151 0;
#X connect 131 0 140 1;
#X connect 132 0 140 3;
#X connect 133 0 140 5;
#X connect 134 0 140 7;
#X connect 135 0 122 0;
#X connect 135 1 131 0;
#X connect 135 2 123 0;
#X connect 135 3 132 0;
#X connect 135 4 124 0;
#X connect 135 5 133 0;
#X connect 135 6 125 0;
#X connect 135 7 134 0;
#X connect 136 0 140 0;
#X connect 137 0 140 2;
#X connect 138 0 140 4;
#X connect 139 0 140 6;
#X connect 140 0 40 0;
#X connect 141 0 128 1;
#X connect 141 0 126 1;
#X connect 142 0 127 1;
#X connect 142 0 130 1;
#X connect 143 0 135 0;
#X connect 144 0 158 1;
#X connect 145 0 159 1;
#X connect 146 0 160 1;
#X connect 147 0 161 1;
#X connect 148 0 149 0;
#X connect 148 0 159 0;
#X connect 149 0 150 0;
#X connect 149 0 160 0;
#X connect 150 0 152 0;
#X connect 150 0 161 0;
#X connect 151 0 148 0;
#X connect 151 0 158 0;
#X connect 152 0 163 0;
#X connect 153 0 162 1;
#X connect 154 0 162 3;
#X connect 155 0 162 5;
#X connect 156 0 162 7;
#X connect 157 0 144 0;
#X connect 157 1 153 0;
#X connect 157 2 145 0;
#X connect 157 3 154 0;
#X connect 157 4 146 0;
#X connect 157 5 155 0;
#X connect 157 6 147 0;
#X connect 157 7 156 0;
#X connect 158 0 162 0;
#X connect 159 0 162 2;
#X connect 160 0 162 4;
#X connect 161 0 162 6;
#X connect 162 0 40 0;
#X connect 164 0 150 1;
#X connect 164 0 148 1;
#X connect 165 0 149 1;
#X connect 165 0 152 1;
#X connect 166 0 157 0;
#X connect 167 0 177 0;
#X connect 168 0 179 0;
#X connect 169 0 181 0;
#X connect 170 0 183 0;
#X connect 171 0 178 0;
#X connect 172 0 180 0;
#X connect 173 0 182 0;
#X connect 174 0 184 0;
#X connect 175 0 167 0;
#X connect 175 1 171 0;
#X connect 175 2 168 0;
#X connect 175 3 172 0;
#X connect 175 4 169 0;
#X connect 175 5 173 0;
#X connect 175 6 170 0;
#X connect 175 7 174 0;
#X connect 176 0 203 0;
#X connect 177 0 176 0;
#X connect 177 1 176 0;
#X connect 178 0 176 0;
#X connect 178 1 176 1;
#X connect 179 0 176 0;
#X connect 179 1 176 2;
#X connect 180 0 176 0;
#X connect 180 1 176 3;
#X connect 181 0 176 0;
#X connect 181 1 176 4;
#X connect 182 0 176 0;
#X connect 182 1 176 5;
#X connect 183 0 176 0;
#X connect 183 1 176 6;
#X connect 184 0 176 0;
#X connect 184 1 176 7;
#X connect 185 0 195 0;
#X connect 186 0 197 0;
#X connect 187 0 199 0;
#X connect 188 0 201 0;
#X connect 189 0 196 0;
#X connect 190 0 198 0;
#X connect 191 0 200 0;
#X connect 192 0 202 0;
#X connect 193 0 185 0;
#X connect 193 1 189 0;
#X connect 193 2 186 0;
#X connect 193 3 190 0;
#X connect 193 4 187 0;
#X connect 193 5 191 0;
#X connect 193 6 188 0;
#X connect 193 7 192 0;
#X connect 194 0 204 0;
#X connect 195 0 194 0;
#X connect 195 1 194 0;
#X connect 196 0 194 0;
#X connect 196 1 194 1;
#X connect 197 0 194 0;
#X connect 197 1 194 2;
#X connect 198 0 194 0;
#X connect 198 1 194 3;
#X connect 199 0 194 0;
#X connect 199 1 194 4;
#X connect 200 0 194 0;
#X connect 200 1 194 5;
#X connect 201 0 194 0;
#X connect 201 1 194 6;
#X connect 202 0 194 0;
#X connect 202 1 194 7;
#X connect 205 0 193 0;
#X connect 206 0 175 0;
#X connect 207 0 211 0;
#X connect 207 0 210 0;
#X connect 210 0 209 0;
#X connect 211 0 208 0;
