#N canvas 374 192 625 577 10;
#X obj 155 457 dac~;
#X obj 163 371 pluck~ 0.99;
#X obj 184 8 notein;
#X obj 112 234 / 127;
#X obj 137 132 r feedback;
#X msg 117 168 feedback \$1;
#X obj 280 255 r damping;
#X text 330 427 param damping slider 1200 6000 6000;
#X obj 290 277 loadbang;
#X msg 287 303 6000;
#X text 318 449 param feedback slider 0.9 0.999 0.993;
#X obj 68 108 loadbang;
#X msg 65 134 0.993;
#X obj 222 184 poly 8;
#X text 256 20 pluck~ models a plucked string with Karplus-Strong.
Floats sent to the cold inlet determine the pitch (in Hz) \; floats
sent to the hot inlet are velocities in the range 0...1. The feedback
coefficient that determines the rate of decay can be set with a message
to the hot inlet \, or with a creation argument. If neither is given
\, the coefficient defaults to 0.993.;
#X obj 203 220 pack 0 0 0;
#X connect 1 0 0 0;
#X connect 1 0 0 1;
#X connect 2 0 1 1;
#X connect 2 0 13 0;
#X connect 2 1 3 0;
#X connect 2 1 13 1;
#X connect 3 0 1 0;
#X connect 4 0 5 0;
#X connect 5 0 1 0;
#X connect 6 0 1 2;
#X connect 8 0 9 0;
#X connect 9 0 1 2;
#X connect 11 0 12 0;
#X connect 12 0 5 0;
#X connect 13 0 15 0;
#X connect 13 1 15 1;
#X connect 13 2 15 2;
