#N canvas 647 440 374 254 10;
#X obj 113 30 inlet;
#X obj 216 67 /;
#X obj 216 25 inlet;
#X msg 216 46 1000 \$1;
#X obj 113 51 route feedback;
#X obj 25 31 loadbang;
#X obj 25 53 f \$1;
#X obj 73 85 sel 0;
#N canvas 200 374 277 237 pluck_core 1;
#X obj 182 109 outlet~;
#X obj 113 190 delwrite~ \$0-ff 1000;
#X obj 159 82 delread~ \$0-ff;
#X obj 137 163 *~ 0.99;
#X obj 144 133 lop~ 6000;
#X obj 65 31 inlet;
#X obj 214 32 inlet;
#X obj 140 32 inlet;
#X obj 65 77 vline~;
#X msg 65 54 \$1 2 \, 0 2 2;
#X obj 32 171 block~ 1;
#X connect 2 0 0 0;
#X connect 2 0 4 0;
#X connect 3 0 1 0;
#X connect 4 0 3 0;
#X connect 5 0 9 0;
#X connect 6 0 3 1;
#X connect 7 0 2 0;
#X connect 8 0 1 0;
#X connect 9 0 8 0;
#X restore 137 132 pd pluck_core;
#X obj 137 153 outlet~;
#X text 14 182 derived from code by Guenter Geiger \, Marius Schebella
\, and Derek Holzer;
#X connect 0 0 4 0;
#X connect 1 0 8 1;
#X connect 2 0 3 0;
#X connect 3 0 1 0;
#X connect 4 0 7 0;
#X connect 4 1 8 0;
#X connect 5 0 6 0;
#X connect 6 0 7 0;
#X connect 7 1 8 2;
#X connect 8 0 9 0;
