#N canvas 124 216 491 436 10;
#X obj 309 10 inlet;
#X obj 246 317 outlet~;
#X obj 246 219 *~ 0.3;
#X obj 313 219 *~ 0.2;
#X obj 383 219 *~ 0.2;
#X obj 168 220 *~ 0.4;
#X obj 263 121 * 1.18662;
#X obj 325 121 * 4.86908;
#X obj 387 121 * 8.35654;
#X obj 172 65 vline~;
#X obj 85 -26 inlet;
#X obj 166 116 hip~ 200;
#X obj 166 92 *~;
#X obj 172 19 t b f;
#X obj 246 296 *~;
#X obj 214 19 s \$0-vel;
#X obj 319 295 r \$0-vel;
#X text 66 337 Based on the rolling can practical from "Designing Sound".
;
#X obj 27 36 loadbang;
#X obj 85 -4 route sharpness;
#X obj 169 195 bp~ 1 1;
#X obj 245 197 bp~ 1 1;
#X obj 312 198 bp~ 1 1;
#X obj 383 198 bp~ 1 1;
#X obj 27 59 f \$1;
#X obj 27 82 sel 0;
#X obj 246 273 clip~ -0.6 0.6;
#X obj 281 296 * 1.6;
#X msg 172 43 1 \, 0 15 2;
#X obj 84 115 f 400;
#X obj 246 253 *~ 150;
#X connect 0 0 6 0;
#X connect 0 0 7 0;
#X connect 0 0 8 0;
#X connect 0 0 20 1;
#X connect 2 0 30 0;
#X connect 3 0 30 0;
#X connect 4 0 30 0;
#X connect 5 0 30 0;
#X connect 6 0 21 1;
#X connect 7 0 22 1;
#X connect 8 0 23 1;
#X connect 9 0 12 0;
#X connect 9 0 12 1;
#X connect 10 0 19 0;
#X connect 11 0 20 0;
#X connect 11 0 21 0;
#X connect 11 0 22 0;
#X connect 11 0 23 0;
#X connect 12 0 11 0;
#X connect 13 0 28 0;
#X connect 13 1 15 0;
#X connect 14 0 1 0;
#X connect 16 0 27 0;
#X connect 18 0 24 0;
#X connect 19 0 29 0;
#X connect 19 1 13 0;
#X connect 20 0 5 0;
#X connect 21 0 2 0;
#X connect 22 0 3 0;
#X connect 23 0 4 0;
#X connect 24 0 25 0;
#X connect 25 0 29 0;
#X connect 25 1 29 0;
#X connect 26 0 14 0;
#X connect 27 0 14 1;
#X connect 28 0 9 0;
#X connect 29 0 20 2;
#X connect 29 0 21 2;
#X connect 29 0 22 2;
#X connect 29 0 23 2;
#X connect 30 0 26 0;
