#N canvas 113 85 570 440 10;
#X obj 305 25 inlet;
#X obj 249 339 outlet~;
#X obj 45 56 *~;
#X obj 177 56 *~;
#X obj 105 87 *~;
#X obj 68 144 +~;
#X obj 34 113 sig~ 3435;
#X obj 106 111 *~ 12000;
#X obj 17 21 osc~ 6221;
#X obj 84 21 osc~ 4409;
#X obj 151 22 osc~ 3383;
#X obj 216 20 osc~ 2441;
#X obj 420 109 noise~;
#X obj 133 217 *~;
#X obj 377 202 *~;
#X obj 305 50 t b f;
#X obj 332 71 s \$0-vel;
#X obj 248 315 *~;
#X obj 349 257 r \$0-vel;
#X text 274 382 Based on Andy Farnell's Cheesebox.;
#X obj 68 167 osc~ 6543;
#X obj 329 109 vead~ 2 2000;
#X obj 419 153 clip~ -0.7 0.7;
#X obj 420 131 bp~ 8000 4;
#X obj 207 113 vead~ 2 5000;
#X obj 349 278 * 0.58;
#X connect 0 0 15 0;
#X connect 2 0 4 0;
#X connect 3 0 4 1;
#X connect 4 0 7 0;
#X connect 5 0 20 0;
#X connect 6 0 5 0;
#X connect 7 0 5 1;
#X connect 8 0 2 0;
#X connect 9 0 2 1;
#X connect 10 0 3 0;
#X connect 11 0 3 1;
#X connect 12 0 23 0;
#X connect 13 0 17 0;
#X connect 14 0 17 0;
#X connect 15 0 21 0;
#X connect 15 0 24 0;
#X connect 15 1 16 0;
#X connect 17 0 1 0;
#X connect 18 0 25 0;
#X connect 20 0 13 0;
#X connect 21 0 14 0;
#X connect 22 0 14 1;
#X connect 23 0 22 0;
#X connect 24 0 13 1;
#X connect 25 0 17 1;
