#N canvas 799 249 810 546 10;
#X obj 185 337 dac~;
#X obj 118 196 snare~;
#X obj 239 190 cymbal~;
#X obj 68 198 kick~;
#X obj 186 192 hihat~;
#X obj 172 258 *~ 0.5;
#X obj 135 16 notein;
#X obj 61 71 sel 60;
#X msg 61 95 1;
#X obj 58 121 spigot;
#X msg 114 100 1;
#X obj 111 126 spigot;
#X msg 160 98 1;
#X obj 157 124 spigot;
#X msg 213 96 1;
#X obj 210 122 spigot;
#X obj 136 48 / 127;
#X obj 69 173 *;
#X obj 114 76 sel 62;
#X obj 160 74 sel 64;
#X obj 213 72 sel 65;
#X obj 119 169 *;
#X obj 174 158 *;
#X obj 213 153 *;
#X obj 218 222 *~ 0.3;
#X connect 1 0 5 0;
#X connect 2 0 24 0;
#X connect 3 0 5 0;
#X connect 4 0 5 0;
#X connect 5 0 0 0;
#X connect 5 0 0 1;
#X connect 6 0 7 0;
#X connect 6 0 18 0;
#X connect 6 0 19 0;
#X connect 6 0 20 0;
#X connect 6 1 16 0;
#X connect 7 0 8 0;
#X connect 8 0 9 0;
#X connect 9 0 17 0;
#X connect 10 0 11 0;
#X connect 11 0 21 0;
#X connect 12 0 13 0;
#X connect 13 0 22 0;
#X connect 14 0 15 0;
#X connect 15 0 23 0;
#X connect 16 0 9 1;
#X connect 16 0 17 1;
#X connect 16 0 11 1;
#X connect 16 0 13 1;
#X connect 16 0 15 1;
#X connect 16 0 21 1;
#X connect 16 0 22 1;
#X connect 16 0 23 1;
#X connect 17 0 3 0;
#X connect 18 0 10 0;
#X connect 19 0 12 0;
#X connect 20 0 14 0;
#X connect 21 0 1 0;
#X connect 22 0 4 0;
#X connect 23 0 2 0;
#X connect 24 0 5 0;
