#N canvas 203 172 598 537 10;
#X obj 422 14 inlet;
#X obj 192 476 outlet~;
#X obj 130 46 *~;
#X obj 279 47 *~;
#X obj 201 76 *~;
#X obj 162 130 +~;
#X obj 162 152 osc~ 5435;
#X obj 201 96 *~ 12000;
#X obj 99 14 osc~ 6221;
#X obj 313 13 osc~ 2441;
#X obj 260 96 noise~;
#X obj 194 185 +~;
#X obj 259 138 clip~ -0.7 0.7;
#X obj 29 375 *~;
#X obj 358 369 *~;
#X obj 132 97 sig~ 7435;
#X obj 260 117 bp~ 12000 12;
#X obj 248 13 osc~ 3283;
#X obj 174 14 osc~ 4109;
#X obj 92 320 vead~ 2 800;
#X obj 117 292 r \$0-open;
#X obj 192 292 r \$0-closed;
#X obj 192 452 *~;
#X obj 255 435 r \$0-vel;
#X text 36 512 Based on Andy Farnell's Cheesebox.;
#X obj 422 35 route closed;
#X obj 491 56 t b f;
#X obj 518 78 s \$0-vel;
#X obj 505 147 s \$0-closed;
#X obj 433 147 s \$0-open;
#X obj 461 115 route 0 1;
#X obj 255 454 * 0.29;
#X obj 461 93 f 1;
#X obj 92 340 sqrt~;
#X obj 181 337 vead~ 2 200;
#X obj 262 335 vead~ 2 100;
#X connect 0 0 25 0;
#X connect 2 0 4 0;
#X connect 3 0 4 1;
#X connect 4 0 7 0;
#X connect 5 0 6 0;
#X connect 6 0 11 0;
#X connect 7 0 5 1;
#X connect 8 0 2 0;
#X connect 9 0 3 1;
#X connect 10 0 16 0;
#X connect 11 0 13 0;
#X connect 11 0 14 1;
#X connect 12 0 11 1;
#X connect 13 0 22 0;
#X connect 14 0 22 0;
#X connect 15 0 5 0;
#X connect 16 0 12 0;
#X connect 17 0 3 0;
#X connect 18 0 2 1;
#X connect 19 0 33 0;
#X connect 20 0 19 0;
#X connect 20 0 35 0;
#X connect 21 0 34 0;
#X connect 21 0 35 0;
#X connect 22 0 1 0;
#X connect 23 0 31 0;
#X connect 25 0 32 1;
#X connect 25 1 26 0;
#X connect 26 0 32 0;
#X connect 26 1 27 0;
#X connect 30 0 29 0;
#X connect 30 1 28 0;
#X connect 31 0 22 1;
#X connect 32 0 30 0;
#X connect 33 0 13 1;
#X connect 34 0 13 1;
#X connect 35 0 14 0;
