#N canvas 821 195 300 345 10;
#X obj 112 202 osc~ 200;
#X obj 97 224 *~;
#X msg 157 144 0;
#X obj 104 113 *~;
#X obj 159 10 inlet;
#X obj 171 273 outlet~;
#X obj 159 35 t b f;
#X obj 171 251 *~;
#X obj 59 144 sqrt~;
#X text 30 299 Adapted from Andy Farnell's Cheesebox;
#X obj 110 168 +~ 60;
#X obj 110 144 *~ 40;
#X obj 82 72 vead~ 8 500;
#X connect 0 0 1 1;
#X connect 1 0 7 0;
#X connect 2 0 0 1;
#X connect 3 0 11 0;
#X connect 4 0 6 0;
#X connect 6 0 12 0;
#X connect 6 1 7 1;
#X connect 6 1 2 0;
#X connect 7 0 5 0;
#X connect 8 0 1 0;
#X connect 10 0 0 0;
#X connect 11 0 10 0;
#X connect 12 0 3 0;
#X connect 12 0 3 1;
#X connect 12 0 8 0;
