#N canvas 4 90 514 619 10;
#X obj 154 556 outlet~;
#X obj 230 23 inlet;
#X obj 140 182 noise~;
#X obj 243 222 osc~;
#X obj 180 330 *~;
#X obj 137 327 *~;
#X obj 151 364 *~;
#X obj 55 239 *~;
#X obj 278 127 *~;
#X obj 376 345 *~;
#X obj 152 386 clip~ 0 1;
#X obj 243 245 clip~ -0.8 0.8;
#X obj 56 307 *~ 0.1;
#X obj 153 407 *~ 0.4;
#X obj 109 209 bp~ 3300 0.5;
#X obj 110 243 lop~ 7000;
#X obj 153 454 bp~ 8000 1;
#X obj 199 306 clip~ -0.9 0.9;
#X obj 200 284 *~ 10000;
#X obj 230 88 vead~ 1 300;
#X obj 243 176 *~ 24;
#X obj 243 200 +~ 200;
#X obj 230 43 t b f;
#X obj 257 66 s \$0-vel;
#X obj 154 533 *~;
#X obj 170 490 r \$0-vel;
#X text 240 554 Adapted from Andy Farnell's Cheesebox.;
#X obj 170 512 * 0.36;
#X connect 1 0 22 0;
#X connect 2 0 14 0;
#X connect 3 0 11 0;
#X connect 4 0 6 1;
#X connect 5 0 6 0;
#X connect 6 0 10 0;
#X connect 7 0 12 0;
#X connect 8 0 9 1;
#X connect 8 0 20 0;
#X connect 9 0 16 0;
#X connect 10 0 13 0;
#X connect 11 0 9 0;
#X connect 11 0 18 0;
#X connect 12 0 16 0;
#X connect 13 0 16 0;
#X connect 14 0 15 0;
#X connect 14 0 7 1;
#X connect 15 0 5 0;
#X connect 16 0 24 0;
#X connect 17 0 4 1;
#X connect 18 0 17 0;
#X connect 19 0 8 0;
#X connect 19 0 8 1;
#X connect 19 0 5 1;
#X connect 19 0 4 0;
#X connect 19 0 7 0;
#X connect 20 0 21 0;
#X connect 21 0 3 0;
#X connect 22 0 19 0;
#X connect 22 1 23 0;
#X connect 24 0 0 0;
#X connect 25 0 27 0;
#X connect 27 0 24 1;
